<svg width="342.38" height="506" version="1.1" viewBox="0 0 342.38 506" xmlns="http://www.w3.org/2000/svg">
 <g transform="translate(-1.4338 -1.4802)" stroke-width=".32">
  <path d="m165.12 507.16c-13.302-1.5182-26.114-7.0345-35.361-15.225-2.8981-2.567-5.5086-5.415-5.2242-5.6995 0.0883-0.0883 21.87-0.12403 48.404-0.0795l48.243 0.081-2.0309 2.2181c-9.2203 10.07-23.881 17.042-39.378 18.724-3.5862 0.38944-11.158 0.37936-14.653-0.0195zm-56.877-25.382c-8.6696-2.8077-12.532-11.295-8.2368-18.101 1.5245-2.4155 4.7216-4.8392 7.7802-5.8981l1.1015-0.38134-1.564-0.57981c-7.983-2.9594-11.413-11.293-7.3177-17.781 1.196-1.8951 3.9112-4.1616 6.3288-5.283l2.3049-1.0691-0.96-0.36407c-3.8954-1.4772-6.6883-3.846-8.2323-6.9821-0.94998-1.9297-1.0475-2.3975-1.045-5.015 0.0022-2.4951 0.12178-3.1298 0.88036-4.6783 1.6334-3.3346 5.2954-6.184 9.6906-7.5402 1.8225-0.56234 4.6232-0.58823 63.666-0.58823 59.045 0 61.844 0.0259 63.68 0.58839 4.4526 1.3645 8.0141 4.1391 9.671 7.5343 0.75628 1.5496 0.87798 2.1949 0.88306 4.6821 5e-3 2.6182-0.0909 3.0816-1.0418 5.015-1.5434 3.1379-4.3349 5.5061-8.2323 6.9841l-0.96 0.36407 2.3255 1.0787c2.9151 1.3522 5.8212 4.0489 7.0282 6.5218 0.7533 1.5434 0.87528 2.1913 0.88036 4.6764 5e-3 2.6182-0.0909 3.0816-1.0418 5.0149-1.5608 3.1732-4.3267 5.521-8.2323 6.9876l-0.96 0.36051 2.3255 1.0787c2.9151 1.3522 5.8212 4.0489 7.0282 6.5218 0.75297 1.5427 0.87529 2.1918 0.88036 4.6716 5e-3 2.4574-0.11903 3.1465-0.84544 4.696-1.6595 3.54-4.8114 6.1421-9.0828 7.4986l-2.4102 0.76541-123.98-0.0288-2.3169-0.75034zm111.68-16.958c2.728-0.9735 4.696-3.4276 4.7123-5.8762 9e-3 -1.3699-0.98381-3.2871-2.2576-4.3588-2.2598-1.9015 0.83704-1.7884-48.985-1.7884-50.485 0-46.924-0.14599-49.178 2.0162-1.4222 1.3642-1.9727 2.488-1.9727 4.027 0 2.5627 1.2904 4.3931 4 5.6741l1.6 0.75642 45.44-0.0109c37.13-9e-3 45.66-0.0893 46.641-0.4394zm0-27.84c4.8773-1.7405 6.2507-6.8897 2.6751-10.029-2.4385-2.141 1.2186-1.9943-49.718-1.9943-34.169 0-46.567 0.097-47.483 0.3714-1.563 0.46825-3.554 2.1551-4.2332 3.5864-1.4616 3.08 0.43425 6.7225 4.1979 8.0656 1.7786 0.63472 92.783 0.63472 94.561 0zm-109.84-33.462c-15.609-1.5422-24.474-11.105-25.592-27.605-2.4627-36.368-10.169-64.805-26.762-98.758-7.8328-16.027-15.138-29.133-28.741-51.563-2.83-4.6665-5.3615-8.8587-5.6255-9.316-0.264-0.45724-1.1867-1.8952-2.0504-3.1954-4.0922-6.1603-8.9799-15.963-11.991-24.049-8.1013-21.757-10.028-45.731-5.4649-67.995 6.2583-30.535 23.65-58.026 50.353-79.594 25.789-20.83 58.581-34.33 93.633-38.55 9.1967-1.107 14.608-1.4159 24.8-1.4159 10.182 0 15.665 0.31253 24.681 1.4068 70.384 8.5421 127.67 53.46 142.63 111.83 3.3402 13.037 4.4293 24.534 3.6071 38.08-1.0826 17.837-5.0763 32.808-13.145 49.28-2.9702 6.0631-4.8193 9.2569-11.672 20.16-13.673 21.755-27.699 48.103-37.221 69.92-11.461 26.259-17.892 48.983-18.656 65.92-0.32547 7.2114-2.257 22.165-3.2241 24.96-3.7606 10.869-10.868 17.476-21.555 20.039-2.2634 0.54275-5.9075 0.57847-64 0.62759-33.88 0.02848-62.68-0.05466-64-0.18506zm49.307-16.461c2.7247-5.8144 5.0909-14.422 6.0754-22.1 0.20311-1.584 0.36637-5.616 0.36281-8.96-0.0131-12.325-2.4534-22.73-8.0304-34.24-3.9651-8.1832-8.4277-15.058-13.059-20.116-18.602-20.32-25.798-52.671-18.174-81.705 4.2137-16.047 13.186-29.623 24.547-37.141l1.1976-0.79252 3.042 1.6852c3.214 1.7805 6.2584 4.0646 7.3044 5.4802 1.1773 1.5933 0.88344 2.2882-2.3896 5.6504-10.65 10.939-16.977 23.048-19.344 37.02-0.76111 4.4923-0.76194 14.112-2e-3 19.04 1.3757 8.9172 3.9534 16.807 8.3656 25.604 3.4366 6.8525 6.7209 11.985 12.821 20.037 7.1829 9.4811 10.744 16.7 13.872 28.118 2.7003 9.8586 3.8474 18.755 4.0928 31.743 0.22411 11.862-0.22769 18.974-2.024 31.864l-0.21277 1.5267 57.209-0.1734 1.3732-0.73325c2.0804-1.1108 3.8081-3.1006 5.2137-6.0045 1.2488-2.5801 1.2858-2.762 2.3485-11.542 0.59381-4.9062 1.1612-10.792 1.2608-13.08 0.79257-18.199 7.7483-42.906 19.946-70.851 9.8192-22.495 24.277-49.484 38.741-72.323 7.215-11.392 9.9228-16.313 13.134-23.867 5.3954-12.693 8.0379-24.034 8.8357-37.92 0.58506-10.182 0.22656-16.708-1.4414-26.24-3.5189-20.111-13.366-40.031-27.997-56.64-24.624-27.951-60.813-46.297-101.25-51.329-7.9473-0.98885-12.809-1.2651-22.4-1.2726-16.401-0.01288-28.798 1.4646-44.082 5.2538-12.119 3.0044-21.764 6.532-33.198 12.142-16.451 8.0714-29.529 17.456-41.763 29.97-21.616 22.109-33.688 49.06-34.454 76.916-0.69533 25.288 4.6755 44.454 18.831 67.2 36.44 58.554 57.818 108.41 61.545 143.54 0.26028 2.4527 0.47476 5.4969 0.47665 6.7648 5e-3 3.2237 1.8443 18.477 2.4618 20.415 1.5034 4.716 4.3346 8.1956 7.6216 9.3673 0.64573 0.23017 8.6402 0.35046 24.421 0.36748l23.461 0.0253 1.2651-2.6996zm-10.334-35.512c-5.1887-1.8314-15.35-8.0684-19.448-11.937-7.1634-6.7627-10.358-15.495-10.334-28.251 0.01-5.4199 0.73127-12.27 1.3594-12.912 0.14647-0.14974 1.9726 0.40423 4.058 1.231 10.895 4.3197 22.08 11.795 27.407 18.318 2.7205 3.3312 4.8941 7.1455 6.0514 10.619 0.96153 2.886 1.0218 3.3433 1.0371 7.8642 0.0138 4.0885-0.0927 5.1763-0.71878 7.3383-1.1046 3.8148-2.5863 7.1448-3.4982 7.862-1.103 0.86765-3.2158 0.82061-5.9139-0.13171zm22.157-59.469c-2.4786-4.3262-4.087-11.273-3.7101-16.024 0.85483-10.774 6.4674-20.186 16.207-27.179 3.4529-2.4789 11.406-6.5553 15.173-7.7766 3.1181-1.0111 7.0858-1.368 7.947-0.7148 1.4942 1.1333 2.3231 11.043 1.3767 16.458-2.0936 11.978-9.2966 22.017-21.484 29.943-4.3617 2.8369-12.743 6.9732-14.129 6.9732-0.2301 0-0.85151-0.756-1.3809-1.68zm6.028-107.44c-3.7447-0.58902-5.8576-1.6215-9.1125-4.4529-0.72277-0.62872-2.1628-1.6724-3.2-2.3192-5.2552-3.2773-9.3417-7.8388-12.134-13.544-2.9779-6.0854-4.0788-12.439-3.4039-19.645 1.0671-11.393 5.9834-22.802 13.874-32.195 2.6088-3.1056 5.7769-6.24 6.3069-6.24 0.18047 0 0.92974 0.85308 1.665 1.8957l1.3369 1.8957 1.7363-2.7757c3.9622-6.3341 10.71-14.045 16.092-18.388 2.8653-2.3123 7.4408-5.3477 8.0611-5.3477 0.90069 0 5.443 5.5081 6.078 7.3704 0.0555 0.16277 1.6309-0.2005 3.5008-0.80728 3.5555-1.1537 10.694-2.7232 12.386-2.7232 0.86143 0 1.0079 0.13075 1.165 1.04 0.44742 2.5898 0.79718 5.6453 0.80299 7.0151l6e-3 1.4951 6.0647 0.10493c4.4334 0.07671 6.1764 0.21684 6.48 0.521 0.30712 0.30765 0.40372 1.6418 0.37074 5.12-0.0396 4.1706-0.37291 6.9585-1.2416 10.384-0.22012 0.86797-0.20236 0.88 1.2994 0.88h1.5226l-0.19909 2.8c-0.79687 11.207-5.4532 22.004-12.837 29.766l-2.6581 2.7942-0.028 2.4527c-0.1602 14.012-21.647 32.019-39.413 33.032-1.496 0.0852-3.5307 0.0275-4.5216-0.12841z" fill="#1ec5ab"/>
  <path d="m165.6 507.14c-6.7706-0.6817-15.192-2.9472-21.097-5.6755-6.9632-3.217-14.521-8.6536-18.603-13.381l-1.4567-1.6873h96.389l-1.2159 1.4738c-1.9045 2.3083-6.655 6.3631-10.336 8.8222-12.241 8.1776-28.234 12.003-43.68 10.448zm17.28-1.2061c9.0168-1.3423 17.05-4.2081 24.391-8.7013 4.6359-2.8375 11.289-8.4862 11.289-9.5848 0-0.59936-0.92313-0.61165-45.942-0.61165h-45.942l0.10226 0.70694c0.13869 0.95875 5.3649 5.5204 9.5133 8.3036 7.6527 5.1342 16.131 8.3766 25.789 9.862 5.4884 0.84416 15.219 0.85593 20.8 0.0253zm-73.51-23.875c-4.3647-1.0581-8.2438-4.0222-10.029-7.6631-0.82014-1.6728-0.94042-2.2702-0.93439-4.64 0.0057-2.2515 0.15099-3.0298 0.84325-4.5184 1.4826-3.1881 4.405-5.7873 8.0558-7.165l1.546-0.58339-2.6448-1.2646c-3.1949-1.5276-5.5329-3.734-6.8542-6.4686-0.79557-1.6466-0.9295-2.3084-0.94034-4.6467-0.01136-2.4475 0.09464-2.9447 1.0351-4.855 1.5987-3.2474 4.0953-5.3166 8.7123-7.2207 0.75482-0.3113 0.76386-0.34269 0.16-0.55536-4.0966-1.4429-7.4406-4.1885-8.9667-7.3623-0.78896-1.6406-0.92547-2.3166-0.93827-4.6457-0.01347-2.4487 0.09151-2.9421 1.0327-4.855 1.7469-3.5501 5.3309-6.3078 9.7142-7.4745 2.5772-0.68595 124.38-0.68595 126.96 0 4.3823 1.1664 7.9669 3.9241 9.7142 7.4734 0.93514 1.8996 1.0477 2.4212 1.0477 4.8549 0 2.3692-0.12343 2.9785-0.94132 4.6467-1.5936 3.2505-4.8231 5.8986-8.9787 7.3623-0.60386 0.21267-0.59482 0.24406 0.16 0.55536 4.617 1.9041 7.1136 3.9733 8.7123 7.2207 0.93514 1.8996 1.0477 2.4212 1.0477 4.855 0 2.2945-0.1371 3.0193-0.86497 4.5725-1.2358 2.6372-3.7338 4.9999-6.931 6.5557l-2.6417 1.2855 1.5052 0.51287c3.4022 1.1592 6.5821 3.9861 8.0812 7.1841 0.71257 1.52 0.85133 2.2594 0.85133 4.536 0 2.2872-0.13763 3.0137-0.86497 4.5658-1.6982 3.624-5.7559 6.6924-10.252 7.7524-2.9105 0.68624-123.56 0.67177-126.39-0.015zm127.75-1.048c3.9745-1.4234 6.717-3.7312 8.188-6.8904 0.61751-1.3262 0.76633-2.1713 0.76865-4.3647 3e-3 -2.3326-0.12715-2.9934-0.91007-4.64-1.8754-3.9442-5.5571-6.3561-11.247-7.3678l-2.08-0.36985 1.28-0.21863c4.7434-0.81027 7.0128-1.7622 9.4724-3.9737 0.88493-0.79562 1.9435-2.2023 2.5092-3.3343 0.86347-1.7279 0.97842-2.281 0.97819-4.7069-2.1e-4 -2.3605-0.12922-3.0202-0.91319-4.6689-1.7781-3.7395-5.8423-6.4973-10.683-7.2491-1.3621-0.21152-2.4313-0.42986-2.376-0.48515 0.0553-0.0553 1.2487-0.301 2.6519-0.54596 4.7428-0.828 8.5546-3.4069 10.352-7.0038 0.84064-1.6823 0.96855-2.2831 0.96855-4.5501 0-3.498-0.62635-5.209-2.7443-7.4967-2.0361-2.1992-4.7442-3.7264-7.7293-4.359-3.2081-0.67981-122.68-0.68864-125.89-9e-3 -4.3859 0.9296-8.1255 3.7278-9.7147 7.269-0.79464 1.7707-0.86402 2.2236-0.74617 4.8711 0.11027 2.4774 0.27147 3.1782 1.0656 4.6327 2.055 3.764 5.5793 5.8353 11.837 6.9572 1.2515 0.22435 1.2242 0.23923-1.2264 0.66803-5.0782 0.88864-9.0433 3.5642-10.82 7.3011-0.78397 1.6487-0.91298 2.3084-0.91319 4.6689-2.24e-4 2.4198 0.11572 2.981 0.96829 4.6871 0.5327 1.066 1.622 2.5405 2.4206 3.2766 1.935 1.7836 5.5033 3.4375 8.2449 3.8214 1.2067 0.16902 2.2573 0.37056 2.3346 0.4479 0.0773 0.0773-0.66986 0.24189-1.6604 0.36563-5.3161 0.66423-9.6071 3.5043-11.528 7.6301-1.0957 2.3532-1.1045 6.3923-0.01914 8.7232 1.7993 3.8641 5.7487 6.6614 10.548 7.4713 0.90795 0.15322 29.299 0.25815 63.091 0.23319l61.44-0.0454 2.08-0.7449zm-109.28-15.075c-3.9379-0.96294-7.0142-4.6984-6.4307-7.8088 0.37524-2.0002 2.0623-4.0904 4.168-5.1638l1.8973-0.9672 45.29-0.0833c51.569-0.0949 47.533-0.30182 50.42 2.5858 3.2336 3.2336 2.9076 7.1064-0.826 9.811-2.804 2.0312-0.17514 1.9298-49.056 1.8938-24.476-0.0179-44.934-0.13837-45.462-0.26749zm92.967-1.5397c4.1053-2.0988 5.056-6.1008 2.1883-9.2119-2.5461-2.7622 1.6444-2.5481-49.875-2.5481-43.913 0-45.641 0.0221-46.72 0.59779-2.9948 1.5984-4.2133 3.2732-4.2133 5.7911 0 1.6516 0.57583 2.8432 2.066 4.275 2.1495 2.0655-0.83195 1.9466 49.21 1.962l45.623 0.0141 1.7213-0.88zm-94.831-26.456c-1.8895-0.51056-3.9601-1.9231-4.9311-3.364-1.9407-2.8798-1.5115-5.6848 1.2497-8.1673 2.8779-2.5874-0.77367-2.4125 50.346-2.4125 51.683 0 47.608-0.21446 50.56 2.6608 2.0822 2.0286 2.6719 3.7068 2.0646 5.8757-0.52972 1.8919-2.4711 4.0076-4.5321 4.9389l-1.692 0.76461-45.76 0.0606c-36.774 0.0487-46.063-0.0214-47.305-0.35686zm94.665-1.2664c2.7398-1.2952 4-3.1081 4-5.7541 0-2.6681-2.5681-5.2678-5.8828-5.9551-1.1212-0.23254-15.96-0.31254-47.077-0.25382-45.329 0.0855-45.444 0.0874-46.88 0.75446-1.6307 0.75728-3.7208 2.9049-4.0313 4.1422-0.68441 2.7269 0.76544 5.4463 3.7048 6.949l1.7213 0.88 92.845-6e-3 1.6-0.75642zm-114.7-33.835c-10.704-2.2545-17.542-8.939-20.419-19.962-0.41571-1.5924-0.80515-4.616-1.0304-8-2.5569-38.412-12.227-70.955-32.471-109.28-6.7561-12.79-22.577-40.012-29.013-49.92-11.343-17.464-18.139-35.602-20.62-55.037-0.51742-4.0539-0.92823-15.591-0.73509-20.643 1.2067-31.566 15.157-62.214 39.438-86.644 28.03-28.202 66.825-46.118 109.95-50.779 9.524-1.0293 26.136-1.337 35.542-0.65844 26.391 1.9039 50.089 8.2298 72.618 19.385 17.443 8.6365 31.874 18.875 44.653 31.681 24.422 24.472 38.162 54.376 39.803 86.626 0.2984 5.8662-0.27177 18.12-1.1088 23.83-2.3429 15.982-8.0065 32.032-16.571 46.96-0.70684 1.232-3.1068 5.12-5.3332 8.64-21.556 34.081-39.977 71.168-49.429 99.52-5.1851 15.552-8.494 31.487-8.494 40.904 0 3.54-2.1806 20.582-2.9348 22.936-3.281 10.242-9.9128 17.015-19.645 20.064l-2.8603 0.89606-64.16 0.0596c-62.947 0.0585-64.217 0.0476-67.184-0.57722zm133.1-0.81395c3.9567-1.1362 5.9304-1.9837 8.3863-3.601 5.1844-3.414 8.8432-8.2966 11.261-15.027 1.0302-2.8679 2.61-14.424 3.0897-22.6 0.58562-9.9823 1.8716-17.904 4.6492-28.64 1.8521-7.1585 6.3792-20.711 9.7127-29.077 9.8918-24.824 26.015-55.962 42.358-81.803 7.5513-11.94 10.766-17.793 14.235-25.92 5.3003-12.416 8.7364-25.905 9.7287-38.19 0.50579-6.2619 0.5086-19.817 5e-3 -24.21-1.7814-15.544-5.8752-29.567-12.533-42.933-22.912-45.994-73.041-78.836-131.53-86.173-9.8826-1.2398-13.736-1.4518-26.08-1.4349-15.858 0.021705-24.292 0.79374-38.56 3.5297-57.57 11.04-105.17 47.788-123.29 95.171-3.9253 10.268-6.3439 20.298-7.6393 31.68-0.51837 4.5544-0.52562 17.697-0.013266 24.05 1.1692 14.498 5.5415 30.059 12.231 43.529 2.8139 5.666 6.1635 11.46 6.6256 11.46 0.2184 1.8e-4 1.118 1.437 1.9992 3.1928 0.88114 1.7559 2.8736 5.2479 4.4277 7.76 18.199 29.418 31.291 54.163 39.664 74.968 10.245 25.457 15.85 50.536 17.634 78.902 0.25502 4.0554 0.44541 5.117 1.4634 8.16 1.3537 4.0464 2.7882 6.76 4.9402 9.3448 3.7411 4.4935 9.6158 7.4642 16.515 8.3513 1.2714 0.16345 29.499 0.26889 65.28 0.24384l63.04-0.0442zm-128.54-11.769c-3.6071-1.1279-6.1906-3.9821-8.3048-9.1749-0.67777-1.6647-1.0336-3.738-1.9156-11.163-0.59581-5.0154-1.0833-10.272-1.0833-11.682 0-3.2918-0.7344-9.63-1.7982-15.519-4.9214-27.245-19.7-63.312-42.616-104-4.3211-7.6725-10.739-18.48-17.055-28.72-8.513-13.802-13.27-24.589-16.301-36.964-2.2705-9.2699-2.951-15.428-2.9965-27.116-0.03348-8.5994 0.13164-10.689 1.4412-18.24 3.0609-17.649 10.87-35.159 22.58-50.63 8.1553-10.775 20.297-22.275 32.359-30.65 25.681-17.83 58.15-28.294 91.218-29.398 25.437-0.84914 49.615 3.2494 72.369 12.268 10.053 3.9846 23.512 11.159 31.912 17.011 28.008 19.512 46.721 45.589 53.685 74.811 2.7442 11.516 3.4844 20.534 2.7207 33.149-0.90205 14.903-4.6931 28.784-11.842 43.36-2.934 5.9823-4.0375 7.8794-11.261 19.36-20.35 32.341-38.221 68.374-47.711 96.199-6.1321 17.979-9.0267 31.243-9.8281 45.036-0.4952 8.5232-2.1253 21.109-3.0222 23.334-1.7554 4.3542-3.8558 6.8187-7.0779 8.3047l-1.5745 0.72611-57.529 0.1734 0.21276-1.5267c1.7666-12.677 2.203-18.576 2.1957-29.687-0.0102-15.76-1.6372-27.629-5.3736-39.205-2.8258-8.7547-6.3102-15.373-12.096-22.976-13.036-17.129-19.92-32.266-21.966-48.297-0.68153-5.3387 0.0939-15.808 1.6296-22.003 0.74317-2.9977 2.222-7.6112 2.3869-7.4462 0.0629 0.0629-0.30455 1.4169-0.81651 3.0089-2.4861 7.7308-3.4328 17.142-2.5482 25.33 1.7333 16.044 8.3597 31.216 20.782 47.585 4.9344 6.5019 6.7186 9.3202 9.2726 14.648 4.6142 9.6247 7.3073 19.821 8.8738 33.596 0.4234 3.7234 0.5543 7.5308 0.55279 16.079-2e-3 11.487-0.34282 16.771-1.679 26.035-0.40954 2.8392-0.46957 3.9932-0.21285 4.0918 0.19666 0.0754 12.876 0.0952 28.176 0.044 25.508-0.0855 27.934-0.13933 29.207-0.64778 2.9802-1.1899 5.4498-4.0363 6.8738-7.9225 0.84985-2.3193 2.5001-15.55 3.0931-24.8 0.92675-14.454 4.9363-30.873 12.521-51.274 10.092-27.145 27.753-61.584 47.469-92.566 4.6644-7.3296 6.4008-10.403 9.437-16.704 2.8737-5.9637 5.1772-11.946 6.9984-18.176 4.919-16.826 5.7443-36.15 2.2684-53.119-6.47-31.586-26.644-59.843-56.956-79.776-19.949-13.119-43.509-21.952-67.974-25.486-9.8546-1.4234-14.608-1.7382-26.4-1.7487-15.055-0.01335-24.889 0.96968-38.244 3.8229-55.83 11.928-99.691 50.019-112 97.267-3.0674 11.774-3.9966 21.702-3.2197 34.4 0.69286 11.324 2.3562 19.863 5.7967 29.76 3.1116 8.9507 6.7635 16.31 13.419 27.04 38.317 61.781 59.889 113.82 61.469 148.29 0.22022 4.8034 1.9287 19.879 2.433 21.468 0.67866 2.1392 2.5478 5.4987 3.8384 6.8988 0.71385 0.77446 2.1103 1.807 3.1032 2.2946l1.8053 0.88656 46.817 0.1871 1.1097-2.3378c6.7008-14.117 8.6143-31.885 5.1443-47.769-3.0292-13.866-10.29-28.065-19.821-38.762-11.338-12.724-18.044-28.499-20.32-47.798-0.59147-5.0143-0.50255-16.573 0.16617-21.6 1.0371-7.7959 3.6104-17.739 5.6312-21.76 0.35385-0.704 0.54628-0.992 0.42761-0.64-0.11866 0.352-0.90418 2.656-1.7456 5.12-1.6345 4.7865-2.8507 9.8361-3.7146 15.422-0.62503 4.0419-0.67605 16.04-0.0941 22.138 1.4156 14.835 5.9853 28.598 13.127 39.537 2.6121 4.0006 3.6489 5.3478 7.036 9.1426 8.9515 10.029 16.456 24.218 19.542 36.947 2.0664 8.5252 2.749 18.997 1.7632 27.053-0.9998 8.17-3.2051 16.128-6.2701 22.626l-1.554 3.2945-23.302-0.0214c-18.228-0.0166-23.593-0.11238-24.639-0.43923zm39.256-38.555c-0.968-0.31952-2.4275-0.87558-3.2434-1.2357-4.3953-1.9402-14.193-8.2167-16.989-10.884-4.7386-4.5196-7.6991-10.181-9.4107-17.998-1.0471-4.7817-0.69471-21.056 0.49766-22.986 0.31557-0.51061 5.0886 1.3636 10.94 4.296 14.764 7.3982 23.932 16.571 26.919 26.931 0.95513 3.3132 1.016 9.975 0.12215 13.371-0.89226 3.3903-2.6873 7.592-3.5886 8.4-0.99499 0.89197-2.7558 0.92707-5.2475 0.10464zm4.311-0.34122c0.96365-0.3664 2.383-3.2447 3.3902-6.8749 3.7555-13.536-1.9812-25.57-17.002-35.663-5.7813-3.8849-15.445-8.731-18.351-9.2025-1.0177-0.16515-1.0627-0.12691-1.2506 1.063-1.3398 8.4858-0.96905 17.998 0.96409 24.737 1.4716 5.1306 4.463 10.131 8.1597 13.641 4.11 3.9022 16.009 10.962 20.418 12.114 2.1603 0.56451 2.6138 0.58743 3.671 0.18547zm16.531-60.883c-1.8763-3.9212-2.5712-6.3719-2.8636-10.098-0.60016-7.6484 1.2002-14.203 5.7982-21.11 4.9736-7.471 15.483-14.958 25.504-18.169 2.9966-0.96025 7.3241-1.2621 8.0292-0.5601 0.58125 0.57867 1.223 4.2993 1.4518 8.417 0.89092 16.033-8.1829 30.16-25.801 40.169-2.7983 1.5898-9.453 4.6228-10.154 4.628-0.21688 2e-3 -1.1006-1.4731-1.9638-3.2771zm8.4381-0.22778c15.803-7.8205 25.671-19.112 28.185-32.252 0.81937-4.2824 0.3739-15.955-0.64751-16.966-0.12962-0.12839-1.1974-0.2145-2.3728-0.19138-5.3811 0.10588-16.206 5.2481-23.068 10.958-5.8007 4.8269-10.02 11.303-11.908 18.28-0.97989 3.6195-1.052 11.093-0.1404 14.56 0.67107 2.5524 1.8682 5.5796 2.828 7.151 0.57718 0.94498 0.77112 1.0479 1.6489 0.87461 0.54713-0.10799 3.0108-1.194 5.4748-2.4133zm-35.03-71.212c0-0.176 0.13958-0.536 0.31019-0.8 0.17062-0.264 0.3102-0.336 0.3102-0.16s-0.13958 0.536-0.3102 0.8c-0.17061 0.264-0.31019 0.336-0.31019 0.16zm0.65287-1.6c0-0.176 0.2058-0.68 0.45732-1.12 0.25153-0.44 0.45733-0.656 0.45733-0.48s-0.2058 0.68-0.45733 1.12c-0.25152 0.44-0.45732 0.656-0.45732 0.48zm1.2573-2.8426c0-0.34343 0.95213-2.1174 1.1364-2.1174 0.088 0-0.078 0.468-0.36892 1.04-0.59399 1.168-0.76752 1.4116-0.76752 1.0774zm2.24-4.3574c0.18839-0.352 0.41452-0.64 0.50252-0.64s6e-3 0.288-0.18252 0.64c-0.18838 0.352-0.41451 0.64-0.50251 0.64s-6e-3 -0.288 0.18251-0.64zm0.96-1.6c0.18839-0.352 0.41452-0.64 0.50252-0.64s6e-3 0.288-0.18252 0.64c-0.18838 0.352-0.41451 0.64-0.50251 0.64s-6e-3 -0.288 0.18251-0.64zm-18.531-0.16c0-0.176 0.34699-0.968 0.77108-1.76 0.4241-0.792 0.77109-1.296 0.77109-1.12s-0.34699 0.968-0.77109 1.76c-0.42409 0.792-0.77108 1.296-0.77108 1.12zm19.705-1.7649c0.31349-0.5307 0.90473-1.3587 1.3139-1.84 0.40914-0.4813 0.2124-0.0471-0.4372 0.96491-1.2309 1.9176-1.8684 2.554-0.87666 0.87509zm-17.334-3.1951c0.44593-0.88 0.88278-1.6 0.97078-1.6s-0.20485 0.72-0.65078 1.6-0.88278 1.6-0.97078 1.6 0.20485-0.72 0.65078-1.6zm20.365-1.1344c0.57447-0.79995 1.2595-1.628 1.5222-1.84s-0.14364 0.44245-0.90307 1.4544c-1.6341 2.1775-2.1261 2.4839-0.61915 0.38555zm-18.925-1.4256c0.18839-0.352 0.41452-0.64 0.50252-0.64s6e-3 0.288-0.18252 0.64c-0.18838 0.352-0.41451 0.64-0.50251 0.64s-6e-3 -0.288 0.18251-0.64zm0.96-1.6c0.18839-0.352 0.41452-0.64 0.50252-0.64s6e-3 0.288-0.18252 0.64c-0.18838 0.352-0.41451 0.64-0.50251 0.64s-6e-3 -0.288 0.18251-0.64zm20.48-0.16c0.41336-0.44 0.82357-0.8 0.91157-0.8s-0.17821 0.36-0.59157 0.8-0.82356 0.8-0.91156 0.8 0.1782-0.36 0.59156-0.8zm-19.2-1.76c0.37597-0.528 0.75558-0.96 0.84358-0.96s-0.14761 0.432-0.52358 0.96c-0.37596 0.528-0.75558 0.96-0.84358 0.96s0.14762-0.432 0.52358-0.96zm21.427-0.72c1.3261-1.4129 1.6134-1.6669 1.6134-1.4266 0 0.0514-0.684 0.73536-1.52 1.52l-1.52 1.4266zm-19.834-1.5103c0.37218-0.52268 0.84011-1.0513 1.0398-1.1748 0.19974-0.12344-0.0401 0.3042-0.53288 0.95032-1.0696 1.4024-1.4728 1.5809-0.50697 0.22445zm23.127-2.1007c1.8913-2.0046 1.9544-2.8394 0.35576-4.7081l-1.1642-1.3609 1.3242 1.3476c1.8547 1.8874 1.7928 2.7136-0.35576 4.7444l-1.68 1.588zm-21.2-0.30901c0.41336-0.44 0.82357-0.8 0.91157-0.8s-0.17821 0.36-0.59157 0.8-0.82356 0.8-0.91156 0.8 0.1782-0.36 0.59156-0.8zm3.2-3.52c1.1338-1.144 2.1335-2.08 2.2215-2.08s-0.76768 0.936-1.9015 2.08-2.1335 2.08-2.2215 2.08 0.76768-0.936 1.9015-2.08zm16.279-2.64c-0.39804-0.50754-0.38672-0.51886 0.12081-0.12082 0.308 0.24155 0.56 0.49355 0.56 0.56 0 0.26337-0.26278 0.0939-0.68081-0.43918zm-12.759-0.56c0.41336-0.44 0.82357-0.8 0.91157-0.8s-0.17821 0.36-0.59157 0.8-0.82356 0.8-0.91156 0.8 0.1782-0.36 0.59156-0.8zm10.381-0.97765c-0.59649-0.47789-0.59257-0.4838 0.0988-0.14874 0.396 0.1919 0.72 0.41584 0.72 0.49765 0 0.24487-0.16595 0.17416-0.81883-0.34891zm-9.1012 0.0568c0-0.0665 0.252-0.31845 0.56-0.56 0.50754-0.39804 0.51886-0.38672 0.12082 0.12082-0.41803 0.53304-0.68082 0.70255-0.68082 0.43918zm7.28-1.0222c-1.1963-0.649-1.1235-0.91932 0.08-0.29697 0.528 0.27304 0.96 0.56474 0.96 0.64822 0 0.20592-0.0344 0.19431-1.04-0.35125zm19.68 0.0259c-0.92388-0.25829-2.2919-0.78117-3.04-1.162-1.7545-0.89307-4.7202-3.4222-4.7202-4.0253 0-0.27324 0.75852 0.20933 1.8297 1.1641 2.2147 1.9739 3.7832 2.7673 6.6872 3.3825 8.6204 1.8263 20.089-1.863 30.203-9.7162 7.3307-5.6918 12.673-12.909 13.923-18.807 0.44139-2.0834 0.63053-4.5987 0.34579-4.5987-0.0721 0-1.4256 0.972-3.0078 2.16-7.2558 5.4482-15.159 8.9401-23.901 10.56-1.936 0.35884-4.6106 0.53514-8.16 0.53787-4.6875 4e-3 -5.5314-0.0798-7.52-0.74357-3.2262-1.0768-5.9712-2.6852-8.299-4.8628l-2.034-1.9027-0.84939 1.4494c-3.139 5.3563-3.7804 11.997-1.616 16.732l0.77303 1.6911-1.5074-1.1917c-7.7115-6.0966-11.817-13.462-12.903-23.15-0.64329-5.7373 0.57613-13.375 3.2368-20.274 2.8946-7.5055 8.1072-15.665 13.113-20.526l1.6477-1.6 0.63169 0.77119c0.34743 0.42416 0.75099 0.98438 0.8968 1.2449 0.40412 0.72213 0.76202 0.33277 2.9159-3.1723 5.6226-9.1495 13.728-17.725 21.643-22.898 1.435-0.93798 2.8084-1.7054 3.052-1.7054 0.90069 0 5.443 5.5081 6.078 7.3704 0.0555 0.16277 1.6309-0.2005 3.5008-0.80728 3.5555-1.1537 10.694-2.7232 12.386-2.7232 0.86143 0 1.0079 0.13075 1.165 1.04 0.44742 2.5898 0.79718 5.6453 0.80299 7.0151l6e-3 1.4951 6.0647 0.10493c4.4334 0.07671 6.1764 0.21684 6.48 0.521 0.30712 0.30765 0.40372 1.6418 0.37074 5.12-0.0396 4.1706-0.37291 6.9585-1.2416 10.384-0.22012 0.86797-0.20236 0.88 1.2994 0.88h1.5226l-0.19909 2.8c-0.79868 11.232-5.4529 22.005-12.878 29.808l-2.6988 2.836v2.1365c0 2.9445-0.45341 4.6193-2.2578 8.3399-1.841 3.7962-3.804 6.4641-7.408 10.069-6.4141 6.4149-15.035 11.554-23.134 13.79-3.3333 0.92028-10.648 1.1776-13.2 0.46439zm-25.68 0.0363c0-0.0664 0.252-0.31845 0.56-0.56 0.50754-0.39804 0.51886-0.38672 0.12082 0.12082-0.41803 0.53304-0.68082 0.70255-0.68082 0.43918zm3.04-1.4438c-0.528-0.1149-0.816-0.29696-0.64-0.40456 0.33152-0.20269 1.76 0.21847 1.76 0.5189 0 0.0937-0.036 0.15327-0.08 0.13245-0.044-0.0208-0.512-0.13188-1.04-0.24679zm14.199-5.0754c-0.39804-0.50754-0.38672-0.51886 0.12081-0.12082 0.308 0.24155 0.56 0.49355 0.56 0.56 0 0.26337-0.26278 0.0939-0.68081-0.43918z" fill="#e43211"/>
  <path d="m165.6 507.14c-6.7706-0.6817-15.192-2.9472-21.097-5.6755-6.9632-3.217-14.521-8.6536-18.603-13.381l-1.4567-1.6873h96.389l-1.2159 1.4738c-1.9045 2.3083-6.655 6.3631-10.336 8.8222-12.241 8.1776-28.234 12.003-43.68 10.448zm17.28-1.2061c9.0168-1.3423 17.05-4.2081 24.391-8.7013 4.6359-2.8375 11.289-8.4862 11.289-9.5848 0-0.59936-0.92313-0.61165-45.942-0.61165h-45.942l0.10226 0.70694c0.13869 0.95875 5.3649 5.5204 9.5133 8.3036 7.6527 5.1342 16.131 8.3766 25.789 9.862 5.4884 0.84416 15.219 0.85593 20.8 0.0253zm-73.51-23.875c-4.3647-1.0581-8.2438-4.0222-10.029-7.6631-0.82014-1.6728-0.94042-2.2702-0.93439-4.64 0.0057-2.2515 0.15099-3.0298 0.84325-4.5184 1.4826-3.1881 4.405-5.7873 8.0558-7.165l1.546-0.58339-2.6448-1.2646c-3.1949-1.5276-5.5329-3.734-6.8542-6.4686-0.79557-1.6466-0.9295-2.3084-0.94034-4.6467-0.01136-2.4475 0.09464-2.9447 1.0351-4.855 1.5987-3.2474 4.0953-5.3166 8.7123-7.2207 0.75482-0.3113 0.76386-0.34269 0.16-0.55536-4.0966-1.4429-7.4406-4.1885-8.9667-7.3623-0.78896-1.6406-0.92547-2.3166-0.93827-4.6457-0.01347-2.4487 0.09151-2.9421 1.0327-4.855 1.7469-3.5501 5.3309-6.3078 9.7142-7.4745 2.5772-0.68595 124.38-0.68595 126.96 0 4.3823 1.1664 7.9669 3.9241 9.7142 7.4734 0.93514 1.8996 1.0477 2.4212 1.0477 4.8549 0 2.3692-0.12343 2.9785-0.94132 4.6467-1.5936 3.2505-4.8231 5.8986-8.9787 7.3623-0.60386 0.21267-0.59482 0.24406 0.16 0.55536 4.617 1.9041 7.1136 3.9733 8.7123 7.2207 0.93514 1.8996 1.0477 2.4212 1.0477 4.855 0 2.2945-0.1371 3.0193-0.86497 4.5725-1.2358 2.6372-3.7338 4.9999-6.931 6.5557l-2.6417 1.2855 1.5052 0.51287c3.4022 1.1592 6.5821 3.9861 8.0812 7.1841 0.71257 1.52 0.85133 2.2594 0.85133 4.536 0 2.2872-0.13763 3.0137-0.86497 4.5658-1.6982 3.624-5.7559 6.6924-10.252 7.7524-2.9105 0.68624-123.56 0.67177-126.39-0.015zm127.75-1.048c3.9745-1.4234 6.717-3.7312 8.188-6.8904 0.61751-1.3262 0.76633-2.1713 0.76865-4.3647 3e-3 -2.3326-0.12715-2.9934-0.91007-4.64-1.8754-3.9442-5.5571-6.3561-11.247-7.3678l-2.08-0.36985 1.28-0.21863c4.7434-0.81027 7.0128-1.7622 9.4724-3.9737 0.88493-0.79562 1.9435-2.2023 2.5092-3.3343 0.86347-1.7279 0.97842-2.281 0.97819-4.7069-2.1e-4 -2.3605-0.12922-3.0202-0.91319-4.6689-1.7781-3.7395-5.8423-6.4973-10.683-7.2491-1.3621-0.21152-2.4313-0.42986-2.376-0.48515 0.0553-0.0553 1.2487-0.301 2.6519-0.54596 4.7428-0.828 8.5546-3.4069 10.352-7.0038 0.84064-1.6823 0.96855-2.2831 0.96855-4.5501 0-3.498-0.62635-5.209-2.7443-7.4967-2.0361-2.1992-4.7442-3.7264-7.7293-4.359-3.2081-0.67981-122.68-0.68864-125.89-9e-3 -4.3859 0.9296-8.1255 3.7278-9.7147 7.269-0.79464 1.7707-0.86402 2.2236-0.74617 4.8711 0.11027 2.4774 0.27147 3.1782 1.0656 4.6327 2.055 3.764 5.5793 5.8353 11.837 6.9572 1.2515 0.22435 1.2242 0.23923-1.2264 0.66803-5.0782 0.88864-9.0433 3.5642-10.82 7.3011-0.78397 1.6487-0.91298 2.3084-0.91319 4.6689-2.24e-4 2.4198 0.11572 2.981 0.96829 4.6871 0.5327 1.066 1.622 2.5405 2.4206 3.2766 1.935 1.7836 5.5033 3.4375 8.2449 3.8214 1.2067 0.16902 2.2573 0.37056 2.3346 0.4479 0.0773 0.0773-0.66986 0.24189-1.6604 0.36563-5.3161 0.66423-9.6071 3.5043-11.528 7.6301-1.0957 2.3532-1.1045 6.3923-0.01914 8.7232 1.7993 3.8641 5.7487 6.6614 10.548 7.4713 0.90795 0.15322 29.299 0.25815 63.091 0.23319l61.44-0.0454 2.08-0.7449zm-109.28-15.075c-3.9379-0.96294-7.0142-4.6984-6.4307-7.8088 0.37524-2.0002 2.0623-4.0904 4.168-5.1638l1.8973-0.9672 45.29-0.0833c51.569-0.0949 47.533-0.30182 50.42 2.5858 3.2336 3.2336 2.9076 7.1064-0.826 9.811-2.804 2.0312-0.17514 1.9298-49.056 1.8938-24.476-0.0179-44.934-0.13837-45.462-0.26749zm92.967-1.5397c4.1053-2.0988 5.056-6.1008 2.1883-9.2119-2.5461-2.7622 1.6444-2.5481-49.875-2.5481-43.913 0-45.641 0.0221-46.72 0.59779-2.9948 1.5984-4.2133 3.2732-4.2133 5.7911 0 1.6516 0.57583 2.8432 2.066 4.275 2.1495 2.0655-0.83195 1.9466 49.21 1.962l45.623 0.0141 1.7213-0.88zm-94.831-26.456c-1.8895-0.51056-3.9601-1.9231-4.9311-3.364-1.9407-2.8798-1.5115-5.6848 1.2497-8.1673 2.8779-2.5874-0.77367-2.4125 50.346-2.4125 51.683 0 47.608-0.21446 50.56 2.6608 2.0822 2.0286 2.6719 3.7068 2.0646 5.8757-0.52972 1.8919-2.4711 4.0076-4.5321 4.9389l-1.692 0.76461-45.76 0.0606c-36.774 0.0487-46.063-0.0214-47.305-0.35686zm94.665-1.2664c2.7398-1.2952 4-3.1081 4-5.7541 0-2.6681-2.5681-5.2678-5.8828-5.9551-1.1212-0.23254-15.96-0.31254-47.077-0.25382-45.329 0.0855-45.444 0.0874-46.88 0.75446-1.6307 0.75728-3.7208 2.9049-4.0313 4.1422-0.68441 2.7269 0.76544 5.4463 3.7048 6.949l1.7213 0.88 92.845-6e-3 1.6-0.75642zm-114.7-33.835c-10.704-2.2545-17.542-8.939-20.419-19.962-0.41571-1.5924-0.80515-4.616-1.0304-8-2.5569-38.412-12.227-70.955-32.471-109.28-6.7561-12.79-22.577-40.012-29.013-49.92-11.343-17.464-18.139-35.602-20.62-55.037-0.51742-4.0539-0.92823-15.591-0.73509-20.643 1.2067-31.566 15.157-62.214 39.438-86.644 28.03-28.202 66.825-46.118 109.95-50.779 9.524-1.0293 26.136-1.337 35.542-0.65844 26.391 1.9039 50.089 8.2298 72.618 19.385 17.443 8.6365 31.874 18.875 44.653 31.681 24.422 24.472 38.162 54.376 39.803 86.626 0.2984 5.8662-0.27177 18.12-1.1088 23.83-2.3429 15.982-8.0065 32.032-16.571 46.96-0.70684 1.232-3.1068 5.12-5.3332 8.64-21.556 34.081-39.977 71.168-49.429 99.52-5.1851 15.552-8.494 31.487-8.494 40.904 0 3.54-2.1806 20.582-2.9348 22.936-3.281 10.242-9.9128 17.015-19.645 20.064l-2.8603 0.89606-64.16 0.0596c-62.947 0.0585-64.217 0.0476-67.184-0.57722zm133.1-0.81395c3.9567-1.1362 5.9304-1.9837 8.3863-3.601 5.1844-3.414 8.8432-8.2966 11.261-15.027 1.0302-2.8679 2.61-14.424 3.0897-22.6 0.58562-9.9823 1.8716-17.904 4.6492-28.64 1.8521-7.1585 6.3792-20.711 9.7127-29.077 9.8918-24.824 26.015-55.962 42.358-81.803 7.5513-11.94 10.766-17.793 14.235-25.92 5.3003-12.416 8.7364-25.905 9.7287-38.19 0.50579-6.2619 0.5086-19.817 5e-3 -24.21-1.7814-15.544-5.8752-29.567-12.533-42.933-22.912-45.994-73.041-78.836-131.53-86.173-9.8826-1.2398-13.736-1.4518-26.08-1.4349-15.858 0.021705-24.292 0.79374-38.56 3.5297-57.57 11.04-105.17 47.788-123.29 95.171-3.9253 10.268-6.3439 20.298-7.6393 31.68-0.51837 4.5544-0.52562 17.697-0.013266 24.05 1.1692 14.498 5.5415 30.059 12.231 43.529 2.8139 5.666 6.1635 11.46 6.6256 11.46 0.2184 1.8e-4 1.118 1.437 1.9992 3.1928 0.88114 1.7559 2.8736 5.2479 4.4277 7.76 18.199 29.418 31.291 54.163 39.664 74.968 10.245 25.457 15.85 50.536 17.634 78.902 0.25502 4.0554 0.44541 5.117 1.4634 8.16 1.3537 4.0464 2.7882 6.76 4.9402 9.3448 3.7411 4.4935 9.6158 7.4642 16.515 8.3513 1.2714 0.16345 29.499 0.26889 65.28 0.24384l63.04-0.0442zm-128.54-11.769c-3.6071-1.1279-6.1906-3.9821-8.3048-9.1749-0.67777-1.6647-1.0336-3.738-1.9156-11.163-0.59581-5.0154-1.0833-10.272-1.0833-11.682 0-3.2918-0.7344-9.63-1.7982-15.519-4.9214-27.245-19.7-63.312-42.616-104-4.3211-7.6725-10.739-18.48-17.055-28.72-8.513-13.802-13.27-24.589-16.301-36.964-2.2705-9.2699-2.951-15.428-2.9965-27.116-0.03348-8.5994 0.13164-10.689 1.4412-18.24 3.0609-17.649 10.87-35.159 22.58-50.63 8.1553-10.775 20.297-22.275 32.359-30.65 25.681-17.83 58.15-28.294 91.218-29.398 25.437-0.84914 49.615 3.2494 72.369 12.268 10.053 3.9846 23.512 11.159 31.912 17.011 28.008 19.512 46.721 45.589 53.685 74.811 2.7442 11.516 3.4844 20.534 2.7207 33.149-0.90205 14.903-4.6931 28.784-11.842 43.36-2.934 5.9823-4.0375 7.8794-11.261 19.36-20.35 32.341-38.221 68.374-47.711 96.199-6.1321 17.979-9.0267 31.243-9.8281 45.036-0.4952 8.5232-2.1253 21.109-3.0222 23.334-1.7554 4.3542-3.8558 6.8187-7.0779 8.3047l-1.5745 0.72611-57.529 0.1734 0.21276-1.5267c1.7666-12.677 2.203-18.576 2.1957-29.687-0.0102-15.76-1.6372-27.629-5.3736-39.205-2.8258-8.7547-6.3102-15.373-12.096-22.976-13.036-17.129-19.92-32.266-21.966-48.297-0.68153-5.3387 0.0939-15.808 1.6296-22.003 0.74317-2.9977 2.222-7.6112 2.3869-7.4462 0.0629 0.0629-0.30455 1.4169-0.81651 3.0089-2.4861 7.7308-3.4328 17.142-2.5482 25.33 1.7333 16.044 8.3597 31.216 20.782 47.585 4.9344 6.5019 6.7186 9.3202 9.2726 14.648 4.6142 9.6247 7.3073 19.821 8.8738 33.596 0.4234 3.7234 0.5543 7.5308 0.55279 16.079-2e-3 11.487-0.34282 16.771-1.679 26.035-0.40954 2.8392-0.46957 3.9932-0.21285 4.0918 0.19666 0.0754 12.876 0.0952 28.176 0.044 25.508-0.0855 27.934-0.13933 29.207-0.64778 2.9802-1.1899 5.4498-4.0363 6.8738-7.9225 0.84985-2.3193 2.5001-15.55 3.0931-24.8 0.92675-14.454 4.9363-30.873 12.521-51.274 10.092-27.145 27.753-61.584 47.469-92.566 4.6644-7.3296 6.4008-10.403 9.437-16.704 2.8737-5.9637 5.1772-11.946 6.9984-18.176 4.919-16.826 5.7443-36.15 2.2684-53.119-6.47-31.586-26.644-59.843-56.956-79.776-19.949-13.119-43.509-21.952-67.974-25.486-9.8546-1.4234-14.608-1.7382-26.4-1.7487-15.055-0.01335-24.889 0.96968-38.244 3.8229-55.83 11.928-99.691 50.019-112 97.267-3.0674 11.774-3.9966 21.702-3.2197 34.4 0.69286 11.324 2.3562 19.863 5.7967 29.76 3.1116 8.9507 6.7635 16.31 13.419 27.04 38.317 61.781 59.889 113.82 61.469 148.29 0.22022 4.8034 1.9287 19.879 2.433 21.468 0.67866 2.1392 2.5478 5.4987 3.8384 6.8988 0.71385 0.77446 2.1103 1.807 3.1032 2.2946l1.8053 0.88656 46.817 0.1871 1.1097-2.3378c6.7008-14.117 8.6143-31.885 5.1443-47.769-3.0292-13.866-10.29-28.065-19.821-38.762-11.338-12.724-18.044-28.499-20.32-47.798-0.59147-5.0143-0.50255-16.573 0.16617-21.6 1.0371-7.7959 3.6104-17.739 5.6312-21.76 0.35385-0.704 0.54628-0.992 0.42761-0.64-0.11866 0.352-0.90418 2.656-1.7456 5.12-1.6345 4.7865-2.8507 9.8361-3.7146 15.422-0.62503 4.0419-0.67605 16.04-0.0941 22.138 1.4156 14.835 5.9853 28.598 13.127 39.537 2.6121 4.0006 3.6489 5.3478 7.036 9.1426 8.9515 10.029 16.456 24.218 19.542 36.947 2.0664 8.5252 2.749 18.997 1.7632 27.053-0.9998 8.17-3.2051 16.128-6.2701 22.626l-1.554 3.2945-23.302-0.0214c-18.228-0.0166-23.593-0.11238-24.639-0.43923zm39.256-38.555c-0.968-0.31952-2.4275-0.87558-3.2434-1.2357-4.3953-1.9402-14.193-8.2167-16.989-10.884-4.7386-4.5196-7.6991-10.181-9.4107-17.998-1.0471-4.7817-0.69471-21.056 0.49766-22.986 0.31557-0.51061 5.0886 1.3636 10.94 4.296 14.764 7.3982 23.932 16.571 26.919 26.931 0.95513 3.3132 1.016 9.975 0.12215 13.371-0.89226 3.3903-2.6873 7.592-3.5886 8.4-0.99499 0.89197-2.7558 0.92707-5.2475 0.10464zm4.311-0.34122c0.96365-0.3664 2.383-3.2447 3.3902-6.8749 3.7555-13.536-1.9812-25.57-17.002-35.663-5.7813-3.8849-15.445-8.731-18.351-9.2025-1.0177-0.16515-1.0627-0.12691-1.2506 1.063-1.3398 8.4858-0.96905 17.998 0.96409 24.737 1.4716 5.1306 4.463 10.131 8.1597 13.641 4.11 3.9022 16.009 10.962 20.418 12.114 2.1603 0.56451 2.6138 0.58743 3.671 0.18547zm16.531-60.883c-1.8763-3.9212-2.5712-6.3719-2.8636-10.098-0.60016-7.6484 1.2002-14.203 5.7982-21.11 4.9736-7.471 15.483-14.958 25.504-18.169 2.9966-0.96025 7.3241-1.2621 8.0292-0.5601 0.58125 0.57867 1.223 4.2993 1.4518 8.417 0.89092 16.033-8.1829 30.16-25.801 40.169-2.7983 1.5898-9.453 4.6228-10.154 4.628-0.21688 2e-3 -1.1006-1.4731-1.9638-3.2771zm8.4381-0.22778c15.803-7.8205 25.671-19.112 28.185-32.252 0.81937-4.2824 0.3739-15.955-0.64751-16.966-0.12962-0.12839-1.1974-0.2145-2.3728-0.19138-5.3811 0.10588-16.206 5.2481-23.068 10.958-5.8007 4.8269-10.02 11.303-11.908 18.28-0.97989 3.6195-1.052 11.093-0.1404 14.56 0.67107 2.5524 1.8682 5.5796 2.828 7.151 0.57718 0.94498 0.77112 1.0479 1.6489 0.87461 0.54713-0.10799 3.0108-1.194 5.4748-2.4133zm-35.03-71.212c0-0.176 0.13958-0.536 0.31019-0.8 0.17062-0.264 0.3102-0.336 0.3102-0.16s-0.13958 0.536-0.3102 0.8c-0.17061 0.264-0.31019 0.336-0.31019 0.16zm0.65287-1.6c0-0.176 0.2058-0.68 0.45732-1.12 0.25153-0.44 0.45733-0.656 0.45733-0.48s-0.2058 0.68-0.45733 1.12c-0.25152 0.44-0.45732 0.656-0.45732 0.48zm1.2573-2.8426c0-0.34343 0.95213-2.1174 1.1364-2.1174 0.088 0-0.078 0.468-0.36892 1.04-0.59399 1.168-0.76752 1.4116-0.76752 1.0774zm2.24-4.3574c0.18839-0.352 0.41452-0.64 0.50252-0.64s6e-3 0.288-0.18252 0.64c-0.18838 0.352-0.41451 0.64-0.50251 0.64s-6e-3 -0.288 0.18251-0.64zm0.96-1.6c0.18839-0.352 0.41452-0.64 0.50252-0.64s6e-3 0.288-0.18252 0.64c-0.18838 0.352-0.41451 0.64-0.50251 0.64s-6e-3 -0.288 0.18251-0.64zm-18.531-0.16c0-0.176 0.34699-0.968 0.77108-1.76 0.4241-0.792 0.77109-1.296 0.77109-1.12s-0.34699 0.968-0.77109 1.76c-0.42409 0.792-0.77108 1.296-0.77108 1.12zm19.705-1.7649c0.31349-0.5307 0.90473-1.3587 1.3139-1.84 0.40914-0.4813 0.2124-0.0471-0.4372 0.96491-1.2309 1.9176-1.8684 2.554-0.87666 0.87509zm-17.334-3.1951c0.44593-0.88 0.88278-1.6 0.97078-1.6s-0.20485 0.72-0.65078 1.6-0.88278 1.6-0.97078 1.6 0.20485-0.72 0.65078-1.6zm20.365-1.1344c0.57447-0.79995 1.2595-1.628 1.5222-1.84s-0.14364 0.44245-0.90307 1.4544c-1.6341 2.1775-2.1261 2.4839-0.61915 0.38555zm-18.925-1.4256c0.18839-0.352 0.41452-0.64 0.50252-0.64s6e-3 0.288-0.18252 0.64c-0.18838 0.352-0.41451 0.64-0.50251 0.64s-6e-3 -0.288 0.18251-0.64zm0.96-1.6c0.18839-0.352 0.41452-0.64 0.50252-0.64s6e-3 0.288-0.18252 0.64c-0.18838 0.352-0.41451 0.64-0.50251 0.64s-6e-3 -0.288 0.18251-0.64zm20.48-0.16c0.41336-0.44 0.82357-0.8 0.91157-0.8s-0.17821 0.36-0.59157 0.8-0.82356 0.8-0.91156 0.8 0.1782-0.36 0.59156-0.8zm-19.2-1.76c0.37597-0.528 0.75558-0.96 0.84358-0.96s-0.14761 0.432-0.52358 0.96c-0.37596 0.528-0.75558 0.96-0.84358 0.96s0.14762-0.432 0.52358-0.96zm21.427-0.72c1.3261-1.4129 1.6134-1.6669 1.6134-1.4266 0 0.0514-0.684 0.73536-1.52 1.52l-1.52 1.4266zm-19.834-1.5103c0.37218-0.52268 0.84011-1.0513 1.0398-1.1748 0.19974-0.12344-0.0401 0.3042-0.53288 0.95032-1.0696 1.4024-1.4728 1.5809-0.50697 0.22445zm23.127-2.1007c1.8913-2.0046 1.9544-2.8394 0.35576-4.7081l-1.1642-1.3609 1.3242 1.3476c1.8547 1.8874 1.7928 2.7136-0.35576 4.7444l-1.68 1.588zm-21.2-0.30901c0.41336-0.44 0.82357-0.8 0.91157-0.8s-0.17821 0.36-0.59157 0.8-0.82356 0.8-0.91156 0.8 0.1782-0.36 0.59156-0.8zm3.2-3.52c1.1338-1.144 2.1335-2.08 2.2215-2.08s-0.76768 0.936-1.9015 2.08-2.1335 2.08-2.2215 2.08 0.76768-0.936 1.9015-2.08zm16.279-2.64c-0.39804-0.50754-0.38672-0.51886 0.12081-0.12082 0.308 0.24155 0.56 0.49355 0.56 0.56 0 0.26337-0.26278 0.0939-0.68081-0.43918zm-12.759-0.56c0.41336-0.44 0.82357-0.8 0.91157-0.8s-0.17821 0.36-0.59157 0.8-0.82356 0.8-0.91156 0.8 0.1782-0.36 0.59156-0.8zm10.381-0.97765c-0.59649-0.47789-0.59257-0.4838 0.0988-0.14874 0.396 0.1919 0.72 0.41584 0.72 0.49765 0 0.24487-0.16595 0.17416-0.81883-0.34891zm-9.1012 0.0568c0-0.0665 0.252-0.31845 0.56-0.56 0.50754-0.39804 0.51886-0.38672 0.12082 0.12082-0.41803 0.53304-0.68082 0.70255-0.68082 0.43918zm7.28-1.0222c-1.1963-0.649-1.1235-0.91932 0.08-0.29697 0.528 0.27304 0.96 0.56474 0.96 0.64822 0 0.20592-0.0344 0.19431-1.04-0.35125zm19.68 0.0259c-0.92388-0.25829-2.2919-0.78117-3.04-1.162-1.7545-0.89307-4.7202-3.4222-4.7202-4.0253 0-0.27324 0.75852 0.20933 1.8297 1.1641 2.2147 1.9739 3.7832 2.7673 6.6872 3.3825 8.6204 1.8263 20.089-1.863 30.203-9.7162 7.3307-5.6918 12.673-12.909 13.923-18.807 0.44139-2.0834 0.63053-4.5987 0.34579-4.5987-0.0721 0-1.4256 0.972-3.0078 2.16-7.2558 5.4482-15.159 8.9401-23.901 10.56-1.936 0.35884-4.6106 0.53514-8.16 0.53787-4.6875 4e-3 -5.5314-0.0798-7.52-0.74357-3.2262-1.0768-5.9712-2.6852-8.299-4.8628l-2.034-1.9027-0.84939 1.4494c-3.139 5.3563-3.7804 11.997-1.616 16.732l0.77303 1.6911-1.5074-1.1917c-7.7115-6.0966-11.817-13.462-12.903-23.15-0.64329-5.7373 0.57613-13.375 3.2368-20.274 2.8946-7.5055 8.1072-15.665 13.113-20.526l1.6477-1.6 0.63169 0.77119c0.34743 0.42416 0.75099 0.98438 0.8968 1.2449 0.40412 0.72213 0.76202 0.33277 2.9159-3.1723 5.6226-9.1495 13.728-17.725 21.643-22.898 1.435-0.93798 2.8084-1.7054 3.052-1.7054 0.90069 0 5.443 5.5081 6.078 7.3704 0.0555 0.16277 1.6309-0.2005 3.5008-0.80728 3.5555-1.1537 10.694-2.7232 12.386-2.7232 0.86143 0 1.0079 0.13075 1.165 1.04 0.44742 2.5898 0.79718 5.6453 0.80299 7.0151l6e-3 1.4951 6.0647 0.10493c4.4334 0.07671 6.1764 0.21684 6.48 0.521 0.30712 0.30765 0.40372 1.6418 0.37074 5.12-0.0396 4.1706-0.37291 6.9585-1.2416 10.384-0.22012 0.86797-0.20236 0.88 1.2994 0.88h1.5226l-0.19909 2.8c-0.79868 11.232-5.4529 22.005-12.878 29.808l-2.6988 2.836v2.1365c0 2.9445-0.45341 4.6193-2.2578 8.3399-1.841 3.7962-3.804 6.4641-7.408 10.069-6.4141 6.4149-15.035 11.554-23.134 13.79-3.3333 0.92028-10.648 1.1776-13.2 0.46439zm3.4398-22.703c0-0.0771-0.23109-1.1211-0.51352-2.32-0.62013-2.6324-0.44443-8.1809 0.35274-11.14 0.78462-2.9123 3.3989-8.0442 5.6347-11.061 3.4187-4.6131 8.5086-9.2177 14.046-12.707l2.08-1.3106 1.1947-3.1407c1.551-4.0772 2.6748-7.8667 3.3449-11.279 0.72504-3.6924 0.72519-10.046 3e-4 -12.821-0.79486-3.0436-2.8944-7.0927-4.6811-9.0282l-1.5619-1.6918-1.1166 0.59322c-2.2606 1.201-7.512 5.406-10.741 8.6011-6.4863 6.4173-11.281 13.117-15.405 21.526-4.9673 10.128-6.9744 18.112-6.6246 26.351 0.28798 6.7824 1.9138 11.003 5.7071 14.816 1.5558 1.5639 2.8271 2.4742 4.8 3.437 2.4561 1.1986 3.4837 1.5453 3.4837 1.1756zm47.061-46.867c1.4842-0.17951 3.6504-0.41368 4.8137-0.52038l2.1152-0.19399 0.54242-2.4593c0.80021-3.6281 1.2663-9.2174 0.93989-11.27l-0.27813-1.7491-10.947-0.17474-0.22426 4.0874c-0.19899 3.627-0.69986 7.9907-1.3472 11.737-0.21593 1.2497-0.21578 1.25 0.73546 1.0597 0.5233-0.10466 2.1658-0.33716 3.65-0.51667zm-76.181 69.606c0-0.0664 0.252-0.31845 0.56-0.56 0.50754-0.39804 0.51886-0.38672 0.12082 0.12082-0.41803 0.53304-0.68082 0.70255-0.68082 0.43918zm3.04-1.4438c-0.528-0.1149-0.816-0.29696-0.64-0.40456 0.33152-0.20269 1.76 0.21847 1.76 0.5189 0 0.0937-0.036 0.15327-0.08 0.13245-0.044-0.0208-0.512-0.13188-1.04-0.24679zm14.199-5.0754c-0.39804-0.50754-0.38672-0.51886 0.12081-0.12082 0.308 0.24155 0.56 0.49355 0.56 0.56 0 0.26337-0.26278 0.0939-0.68081-0.43918z" fill="#e20333"/>
  <path d="m165.6 507.17c-9.4344-1.0247-18.966-4.1257-26.562-8.6413-4.5596-2.7108-7.1815-4.7404-11.198-8.6685l-3.52-3.4421 96.64 6e-3 -3.84 3.7519c-9.0083 8.8016-20.682 14.465-34.086 16.538-4.1033 0.63443-13.527 0.88166-17.434 0.45734zm17.28-1.2289c9.0168-1.3423 17.05-4.2081 24.391-8.7013 4.6359-2.8375 11.289-8.4862 11.289-9.5848 0-0.59936-0.92313-0.61165-45.942-0.61165h-45.942l0.10226 0.70694c0.13869 0.95875 5.3649 5.5204 9.5133 8.3036 7.6527 5.1342 16.131 8.3766 25.789 9.862 5.4884 0.84416 15.219 0.85593 20.8 0.0253zm-73.28-23.827c-8.8361-2.1828-13.52-10.024-10.192-17.063 1.2679-2.6824 3.7247-4.9886 6.9085-6.4852 2.1087-0.9912 2.5125-1.2865 2.0025-1.4648-5.0476-1.7646-8.3612-4.9528-9.609-9.2451-1.5728-5.4104 1.5162-11.067 7.6065-13.93 2.079-0.97725 2.5053-1.2863 2.0025-1.4522-3.9058-1.2881-7.3585-4.1868-8.9253-7.4932-0.85902-1.8128-0.99194-2.4429-0.98224-4.6565 0.0091-2.0837 0.17007-2.9034 0.86497-4.4058 1.0898-2.3562 3.7326-5.0061 6.2702-6.2871 4.1199-2.0797-0.45024-1.9471 67.094-1.9471 67.219 0 62.945-0.11756 66.974 1.8425 2.4296 1.182 5.3048 4.0414 6.3422 6.3073 3.0344 6.6279-0.83107 13.773-8.9952 16.627-0.50994 0.17827-0.1062 0.4736 2.0025 1.4648 3.2066 1.5072 5.7869 3.9342 7.0512 6.6324 0.73345 1.5652 0.86269 2.2594 0.84999 4.5658-0.0127 2.31-0.15107 3.002-0.91786 4.5909-1.5467 3.2049-5.0578 6.0955-8.9859 7.3977-0.50339 0.16688-0.0791 0.47479 2.0025 1.4532 3.2066 1.5072 5.7869 3.9342 7.0512 6.6324 0.73345 1.5652 0.86269 2.2594 0.84999 4.5658-0.0127 2.31-0.15107 3.002-0.91786 4.5909-1.7848 3.6984-6.1697 6.9238-10.683 7.858-2.5782 0.53369-123.49 0.43878-125.66-0.0986zm127.52-1.0952c3.9745-1.4234 6.717-3.7312 8.188-6.8904 0.61751-1.3262 0.76633-2.1713 0.76865-4.3647 3e-3 -2.3326-0.12715-2.9934-0.91007-4.64-1.8754-3.9442-5.5571-6.3561-11.247-7.3678l-2.08-0.36985 1.28-0.21863c4.7434-0.81027 7.0128-1.7622 9.4724-3.9737 0.88493-0.79562 1.9435-2.2023 2.5092-3.3343 0.86347-1.7279 0.97842-2.281 0.97819-4.7069-2.1e-4 -2.3605-0.12922-3.0202-0.91319-4.6689-1.7781-3.7395-5.8423-6.4973-10.683-7.2491-1.3621-0.21152-2.4313-0.42986-2.376-0.48515 0.0553-0.0553 1.2487-0.301 2.6519-0.54596 4.7428-0.828 8.5546-3.4069 10.352-7.0038 0.84064-1.6823 0.96855-2.2831 0.96855-4.5501 0-3.498-0.62635-5.209-2.7443-7.4967-2.0361-2.1992-4.7442-3.7264-7.7293-4.359-3.2081-0.67981-122.68-0.68864-125.89-9e-3 -4.3859 0.9296-8.1255 3.7278-9.7147 7.269-0.79464 1.7707-0.86402 2.2236-0.74617 4.8711 0.11027 2.4774 0.27147 3.1782 1.0656 4.6327 2.055 3.764 5.5793 5.8353 11.837 6.9572 1.2515 0.22435 1.2242 0.23923-1.2264 0.66803-5.0782 0.88864-9.0433 3.5642-10.82 7.3011-0.78397 1.6487-0.91298 2.3084-0.91319 4.6689-2.24e-4 2.4198 0.11572 2.981 0.96829 4.6871 0.5327 1.066 1.622 2.5405 2.4206 3.2766 1.935 1.7836 5.5033 3.4375 8.2449 3.8214 1.2067 0.16902 2.2573 0.37056 2.3346 0.4479 0.0773 0.0773-0.66986 0.24189-1.6604 0.36563-5.3161 0.66423-9.6071 3.5043-11.528 7.6301-1.0957 2.3532-1.1045 6.3923-0.01914 8.7232 1.7993 3.8641 5.7487 6.6614 10.548 7.4713 0.90795 0.15322 29.299 0.25815 63.091 0.23319l61.44-0.0454 2.08-0.7449zm-109.28-15.075c-3.9379-0.96294-7.0142-4.6984-6.4307-7.8088 0.37524-2.0002 2.0623-4.0904 4.168-5.1638l1.8973-0.9672 45.29-0.0833c51.569-0.0949 47.533-0.30182 50.42 2.5858 3.2336 3.2336 2.9076 7.1064-0.826 9.811-2.804 2.0312-0.17514 1.9298-49.056 1.8938-24.476-0.0179-44.934-0.13837-45.462-0.26749zm92.114-1.0058c1.5811-0.43904 3.9059-2.5784 4.3875-4.0376 0.95231-2.8855-0.44924-5.874-3.4447-7.3448l-1.8563-0.91152-44.8-0.0858c-30.994-0.0594-45.31 0.0202-46.457 0.25782-1.9574 0.40598-3.8978 1.7209-4.8766 3.3046-1.3993 2.2641-0.63649 5.9899 1.5442 7.5427 2.3681 1.6862-0.40222 1.5948 48.669 1.6063 31.448 7e-3 45.983-0.0956 46.834-0.33177zm-93.978-26.99c-1.8895-0.51056-3.9601-1.9231-4.9311-3.364-1.9407-2.8798-1.5115-5.6848 1.2497-8.1673 2.8779-2.5874-0.77367-2.4125 50.346-2.4125 51.683 0 47.608-0.21446 50.56 2.6608 2.0822 2.0286 2.6719 3.7068 2.0646 5.8757-0.52972 1.8919-2.4711 4.0076-4.5321 4.9389l-1.692 0.76461-45.76 0.0606c-36.774 0.0487-46.063-0.0214-47.305-0.35686zm94.223-0.99734c1.5148-0.5345 3.2668-2.0324 3.9887-3.4105 0.65571-1.2516 0.56289-3.5854-0.20223-5.0852-0.80159-1.5712-2.9659-3.0136-5.225-3.4821-1.1248-0.23328-15.915-0.31319-47.08-0.2544l-45.44 0.0857-1.8719 0.91914c-3.1998 1.5711-4.5343 4.6921-3.2849 7.6822 0.52305 1.2518 2.5622 3.051 4.0806 3.6005 0.82547 0.29872 11.856 0.39511 47.356 0.41376 40.928 0.0214 46.442-0.0327 47.679-0.46924zm-113.44-33.937c-6.0216-1.094-10.018-3.1581-14.126-7.2961-2.3011-2.318-3.1931-3.5012-4.3668-5.793-2.0641-4.0301-3.1213-7.626-3.4804-11.838-0.16517-1.9372-0.52342-6.1863-0.79611-9.4423-2.3995-28.651-9.2517-54.433-22.07-83.04-2.8265-6.3081-11.407-23.136-15.792-30.971-6.6477-11.878-18.452-31.711-24.229-40.709-11.69-18.207-18.732-39.192-19.981-59.544-0.89444-14.564 0.059117-25.889 3.2525-38.63 6.0694-24.214 18.704-45.539 38.242-64.547 29.466-28.666 69.797-45.902 115.31-49.282 9.7502-0.72409 26.215-0.35437 36.8 0.82635 37.723 4.2079 72.981 19.21 100 42.552 4.6881 4.0499 13.192 12.611 16.831 16.945 19.222 22.889 29.971 49.526 31.303 77.569 0.28324 5.9647-0.26969 17.864-1.0874 23.401-1.9982 13.531-5.952 26.058-12.27 38.876-2.9648 6.0145-5.0948 9.6945-11.502 19.873-21.781 34.6-40.816 73.964-49.361 102.08-4.0215 13.232-6.7134 27.312-6.7134 35.115 0 3.7055-2.1135 20.453-2.9083 23.046-3.1483 10.27-9.8777 17.191-19.717 20.277l-2.8149 0.88291-64 0.054c-54.361 0.0458-64.38-0.015-66.526-0.4049zm132.29-0.98064c3.9567-1.1362 5.9304-1.9837 8.3863-3.601 5.1844-3.414 8.8432-8.2966 11.261-15.027 1.0302-2.8679 2.61-14.424 3.0897-22.6 0.58562-9.9823 1.8716-17.904 4.6492-28.64 1.8521-7.1585 6.3792-20.711 9.7127-29.077 9.8918-24.824 26.015-55.962 42.358-81.803 7.5513-11.94 10.766-17.793 14.235-25.92 5.3003-12.416 8.7364-25.905 9.7287-38.19 0.50579-6.2619 0.5086-19.817 5e-3 -24.21-1.7814-15.544-5.8752-29.567-12.533-42.933-22.912-45.994-73.041-78.836-131.53-86.173-9.8826-1.2398-13.736-1.4518-26.08-1.4349-15.858 0.021705-24.292 0.79374-38.56 3.5297-57.57 11.04-105.17 47.788-123.29 95.171-3.9253 10.268-6.3439 20.298-7.6393 31.68-0.51837 4.5544-0.52562 17.697-0.013266 24.05 1.1692 14.498 5.5415 30.059 12.231 43.529 2.8139 5.666 6.1635 11.46 6.6256 11.46 0.2184 1.8e-4 1.118 1.437 1.9992 3.1928 0.88114 1.7559 2.8736 5.2479 4.4277 7.76 18.199 29.418 31.291 54.163 39.664 74.968 10.245 25.457 15.85 50.536 17.634 78.902 0.25502 4.0554 0.44541 5.117 1.4634 8.16 1.3537 4.0464 2.7882 6.76 4.9402 9.3448 3.7411 4.4935 9.6158 7.4642 16.515 8.3513 1.2714 0.16345 29.499 0.26889 65.28 0.24384l63.04-0.0442zm-128.54-11.769c-3.6071-1.1279-6.1906-3.9821-8.3048-9.1749-0.67777-1.6647-1.0336-3.738-1.9156-11.163-0.59581-5.0154-1.0833-10.272-1.0833-11.682 0-3.2918-0.7344-9.63-1.7982-15.519-4.9214-27.245-19.7-63.312-42.616-104-4.3211-7.6725-10.739-18.48-17.055-28.72-8.513-13.802-13.27-24.589-16.301-36.964-2.2705-9.2699-2.951-15.428-2.9965-27.116-0.03348-8.5994 0.13164-10.689 1.4412-18.24 3.0609-17.649 10.87-35.159 22.58-50.63 8.1553-10.775 20.297-22.275 32.359-30.65 25.681-17.83 58.15-28.294 91.218-29.398 25.437-0.84914 49.615 3.2494 72.369 12.268 10.053 3.9846 23.512 11.159 31.912 17.011 28.008 19.512 46.721 45.589 53.685 74.811 2.7442 11.516 3.4844 20.534 2.7207 33.149-0.90205 14.903-4.6931 28.784-11.842 43.36-2.934 5.9823-4.0375 7.8794-11.261 19.36-20.35 32.341-38.221 68.374-47.711 96.199-6.1321 17.979-9.0267 31.243-9.8281 45.036-0.4952 8.5232-2.1253 21.109-3.0222 23.334-1.7554 4.3542-3.8558 6.8187-7.0779 8.3047l-1.5745 0.72611-57.529 0.1734 0.21276-1.5267c1.7666-12.677 2.203-18.576 2.1957-29.687-0.0102-15.76-1.6372-27.629-5.3736-39.205-2.8258-8.7547-6.3102-15.373-12.096-22.976-13.036-17.129-19.92-32.266-21.966-48.297-0.68153-5.3387 0.0939-15.808 1.6296-22.003 0.76705-3.094 2.224-7.6092 2.3988-7.4343 0.0694 0.0694-0.22881 1.1703-0.6628 2.4463-1.8829 5.536-3.0496 12.874-3.0496 19.182 0 17.997 7.1858 36.22 21.811 55.311 5.3876 7.0328 7.9981 11.568 10.922 18.976 5.2004 13.176 7.5774 29.063 7.1576 47.84-0.21588 9.6561-1.2445 21.265-2.3047 26.012l-0.16341 0.73152 28.249-0.10265c21.587-0.0785 28.53-0.19741 29.441-0.50436 2.9114-0.98105 5.9791-4.5565 7.2381-8.4358 0.75293-2.3201 2.4638-16.211 2.7515-22.34 0.49501-10.546 2.9105-23.061 7.1649-37.12 9.1171-30.129 28.697-70.36 52.625-108.13 8.2291-12.989 12.202-21.11 15.889-32.476 2.9338-9.0459 4.3272-16.625 5.0073-27.236 0.5199-8.1125 0.43747-12.325-0.38515-19.68-3.974-35.532-25.802-68.359-59.962-90.175-27.961-17.857-61.843-27.013-96.96-26.201-26.795 0.61964-50.629 6.2995-73.44 17.502-42.711 20.975-70.952 57.971-75.477 98.874-0.81599 7.3766-0.89574 11.315-0.39207 19.36 0.70017 11.184 2.2386 19.148 5.6058 29.017 3.5965 10.541 6.4226 16.129 15.913 31.463 36.075 58.289 57.549 110.68 59.156 144.32 0.35439 7.4184 2.0169 20.474 2.909 22.844 1.4921 3.9642 3.817 6.7813 6.6849 8.1001l1.6 0.73581 46.909 0.1872 1.2771-2.7643c2.7239-5.8958 5.0545-14.276 6.0918-21.903 0.52601-3.8679 0.53769-14.64 0.02-18.4-1.4249-10.348-4.1258-18.797-9.042-28.286-2.6852-5.1829-7.4447-12.405-10.427-15.821-1.2038-1.379-2.9559-3.395-3.8937-4.48-2.8991-3.3544-6.7338-9.3978-9.3666-14.762-10.171-20.723-11.953-46.597-4.7219-68.591 0.53889-1.6391 1.0314-2.9286 1.0944-2.8656 0.0631 0.0631-0.37098 1.6202-0.96452 3.4602-1.2652 3.9221-2.5311 9.4338-3.2817 14.288-0.62503 4.0419-0.67606 16.04-0.0941 22.138 1.4156 14.835 5.9854 28.598 13.127 39.537 2.6121 4.0006 3.6489 5.3478 7.036 9.1426 8.9515 10.029 16.456 24.218 19.542 36.947 2.0664 8.5252 2.749 18.997 1.7632 27.053-0.9998 8.17-3.2051 16.128-6.2701 22.626l-1.554 3.2945-23.302-0.0214c-18.228-0.0166-23.593-0.11238-24.639-0.43923zm39.256-38.545c-3.6998-1.2001-12.389-6.125-17.666-10.014-6.5422-4.8202-10.73-12.394-12.261-22.178-0.82648-5.2788-0.50745-15.211 0.66026-20.555l0.1555-0.71167 2.316 0.82109c3.3524 1.1885 11.428 5.1486 14.943 7.3276 9.2754 5.7499 15.801 12.406 19.037 19.416 1.8343 3.9745 2.2334 5.9522 2.215 10.978-0.0143 3.9135-0.1256 4.8442-0.8803 7.36-1.2719 4.24-2.8641 7.4543-3.8847 7.8423-1.1964 0.45488-2.6165 0.36672-4.6338-0.28762zm4.311-0.3513c0.96365-0.3664 2.383-3.2447 3.3902-6.8749 3.7555-13.536-1.9812-25.57-17.002-35.663-5.7813-3.8849-15.445-8.731-18.351-9.2025-1.0177-0.16515-1.0627-0.12691-1.2506 1.063-1.3398 8.4858-0.96905 17.998 0.96409 24.737 1.4716 5.1306 4.463 10.131 8.1597 13.641 4.11 3.9022 16.009 10.962 20.418 12.114 2.1603 0.56451 2.6138 0.58743 3.671 0.18547zm16.992-59.842c-2.3831-4.5351-3.4074-8.7218-3.4074-13.927 0-5.2157 1.0604-9.4966 3.5658-14.396 4.4319-8.6662 13.009-16.022 24.07-20.642 6.0105-2.5107 10.079-3.1569 11.561-1.8361 1.715 1.5287 2.3058 11.762 1.0232 17.724-2.7526 12.794-12.233 23.888-26.96 31.549-3.31 1.7218-7.892 3.767-8.4393 3.767-0.12999 0-0.76576-1.0075-1.4128-2.2388zm7.9772-1.269c15.803-7.8205 25.671-19.112 28.185-32.252 0.81937-4.2824 0.3739-15.955-0.64751-16.966-0.12962-0.12839-1.1974-0.2145-2.3728-0.19138-5.3811 0.10588-16.206 5.2481-23.068 10.958-5.8007 4.8269-10.02 11.303-11.908 18.28-0.97989 3.6195-1.052 11.093-0.1404 14.56 0.67107 2.5524 1.8682 5.5796 2.828 7.151 0.57718 0.94498 0.77112 1.0479 1.6489 0.87461 0.54713-0.10799 3.0108-1.194 5.4748-2.4133zm-35.03-71.212c0-0.176 0.13958-0.536 0.31019-0.8 0.17062-0.264 0.3102-0.336 0.3102-0.16s-0.13958 0.536-0.3102 0.8c-0.17061 0.264-0.31019 0.336-0.31019 0.16zm0.64-1.6c0-0.176 0.13958-0.536 0.31019-0.8 0.17062-0.264 0.3102-0.336 0.3102-0.16s-0.13958 0.536-0.3102 0.8c-0.17061 0.264-0.31019 0.336-0.31019 0.16zm1.2702-2.8426c0-0.34343 0.95213-2.1174 1.1364-2.1174 0.088 0-0.078 0.468-0.36892 1.04-0.59399 1.168-0.76752 1.4116-0.76752 1.0774zm-16.63-2.9174c0-0.176 0.13958-0.536 0.31019-0.8s0.3102-0.336 0.3102-0.16-0.13959 0.536-0.3102 0.8-0.31019 0.336-0.31019 0.16zm0.64-1.6c0-0.176 0.13958-0.536 0.31019-0.8s0.3102-0.336 0.3102-0.16-0.13959 0.536-0.3102 0.8-0.31019 0.336-0.31019 0.16zm0.97702-2.24c0-0.176 0.27593-0.824 0.61317-1.44 0.33725-0.616 0.61318-0.976 0.61318-0.8s-0.27593 0.824-0.61318 1.44c-0.33724 0.616-0.61317 0.976-0.61317 0.8zm1.8932-4c0.35916-0.704 0.72501-1.28 0.81301-1.28s-0.13385 0.576-0.49301 1.28c-0.35915 0.704-0.725 1.28-0.813 1.28s0.13385-0.576 0.493-1.28zm20.16-1.0808c0-0.0665 0.252-0.31845 0.56-0.56 0.50754-0.39804 0.51886-0.38672 0.12082 0.12082-0.41803 0.53304-0.68082 0.70256-0.68082 0.43918zm-18.56-1.7992c0.18839-0.352 0.41452-0.64 0.50252-0.64s6e-3 0.288-0.18252 0.64c-0.18838 0.352-0.41451 0.64-0.50251 0.64s-6e-3 -0.288 0.18251-0.64zm19.52 0.51918c0-0.0664 0.252-0.31845 0.56-0.56 0.50754-0.39804 0.51886-0.38672 0.12082 0.12082-0.41803 0.53304-0.68082 0.70256-0.68082 0.43918zm1.76-2.1192c0.31856-0.352 0.6512-0.64 0.7392-0.64s-0.10064 0.288-0.4192 0.64c-0.31855 0.352-0.65119 0.64-0.73919 0.64s0.10064-0.288 0.41919-0.64zm1.12-1.3801c0-0.0551 0.468-0.52307 1.04-1.04l1.04-0.93987-0.93986 1.04c-0.87609 0.96943-1.1401 1.1871-1.1401 0.93987zm-19.2-1.9407c0-0.0665 0.252-0.31845 0.56-0.56 0.50754-0.39804 0.51886-0.38672 0.12082 0.12082-0.41804 0.53304-0.68082 0.70255-0.68082 0.43918zm0.96-1.28c0-0.0665 0.252-0.31845 0.56-0.56 0.50754-0.39804 0.51886-0.38672 0.12082 0.12082-0.41804 0.53304-0.68082 0.70255-0.68082 0.43918zm22.84-1.6912c1.3122-1.3892 1.5378-1.8065 1.4179-2.6231-0.0784-0.53409-0.0246-0.89817 0.11958-0.80908 0.14415 0.0891 0.26209 0.5549 0.26209 1.0351 0 0.63833-0.45178 1.3002-1.68 2.4611l-1.68 1.588zm-21.08-0.42797c0.31856-0.352 0.6512-0.64 0.7392-0.64s-0.10064 0.288-0.4192 0.64c-0.31855 0.352-0.65119 0.64-0.73919 0.64s0.10064-0.288 0.41919-0.64zm2.88-3.2c0.68744-0.704 1.3219-1.28 1.4099-1.28s-0.40245 0.576-1.0899 1.28c-0.68743 0.704-1.3219 1.28-1.4099 1.28s0.40245-0.576 1.0899-1.28zm18.376-1.2-0.77578-0.88 0.88 0.77578c0.8225 0.72508 1.0268 0.98422 0.77578 0.98422-0.0573 0-0.45331-0.396-0.88-0.88zm-1.9366-1.6c-0.39804-0.50754-0.38672-0.51886 0.12081-0.12082 0.308 0.24155 0.56 0.49355 0.56 0.56 0 0.26337-0.26278 0.0939-0.68081-0.43918zm-12.919-0.4c0.31856-0.352 0.6512-0.64 0.7392-0.64s-0.10064 0.288-0.4192 0.64c-0.31855 0.352-0.65119 0.64-0.73919 0.64s0.10064-0.288 0.41919-0.64zm28.563-2.0985c-2.5512-0.61834-4.2323-1.5436-6.2198-3.4232-2.286-2.162-2.1825-2.6364 0.12624-0.57863 2.2147 1.9739 3.7832 2.7673 6.6872 3.3825 8.6204 1.8263 20.089-1.863 30.203-9.7162 8.8433-6.8663 14.366-15.44 14.394-22.347 3e-3 -0.73762 0.14956-1.4301 0.32556-1.5389 0.49579-0.30642 0.38863 3.2746-0.16318 5.4528-0.26575 1.049-1.0653 3.0964-1.7768 4.5498-4.4761 9.1439-16.683 19.195-27.821 22.909-5.3717 1.791-11.625 2.311-15.755 1.31zm-20.262-0.31914c-0.59649-0.47789-0.59257-0.4838 0.0988-0.14874 0.396 0.1919 0.72 0.41584 0.72 0.49765 0 0.24487-0.16595 0.17415-0.81883-0.34891zm-3.1012-1.3143c0.22-0.0888 0.58-0.0888 0.8 0s0.04 0.16141-0.4 0.16141-0.62-0.0726-0.4-0.16141zm14.759-4.8281c-0.39804-0.50754-0.38672-0.51886 0.12081-0.12082 0.308 0.24155 0.56 0.49355 0.56 0.56 0 0.26337-0.26278 0.0939-0.68081-0.43918zm-2.6792-3.0078c-7.5746-6.0911-11.599-13.391-12.676-22.992-1.3721-12.238 5.1136-28.972 15.444-39.847 1.2505-1.3164 2.3979-2.3935 2.55-2.3935 0.152 0 0.60169 0.50221 0.99931 1.116 0.39762 0.61383 0.86694 1.1133 1.0429 1.1099 0.176-3e-3 1.184-1.4561 2.24-3.2284 5.362-8.9988 13.794-17.973 21.809-23.212 1.435-0.93798 2.8084-1.7054 3.052-1.7054 0.90069 0 5.443 5.5081 6.078 7.3704 0.0555 0.16277 1.6309-0.2005 3.5008-0.80728 3.5555-1.1537 10.694-2.7232 12.386-2.7232 0.86143 0 1.0079 0.13075 1.165 1.04 0.44742 2.5898 0.79718 5.6453 0.80299 7.0151l6e-3 1.4951 6.0647 0.10493c4.4334 0.07671 6.1764 0.21684 6.48 0.521 0.30712 0.30765 0.40372 1.6418 0.37074 5.12-0.0396 4.1706-0.37291 6.9585-1.2416 10.384-0.22012 0.86797-0.20236 0.88 1.2994 0.88h1.5226l-0.19909 2.8c-0.84084 11.825-5.5214 22.217-13.888 30.832-8.7362 8.9965-20.234 14.618-32.688 15.981-9.3054 1.0185-15.731-0.71609-20.748-5.6009l-1.9871-1.9348-1.2727 2.5612c-2.8459 5.727-3.245 11.176-1.1544 15.761 0.42131 0.924 0.73798 1.6707 0.70372 1.6594-0.0343-0.0113-0.7823-0.59958-1.6623-1.3072zm29.822-13.037c4.3456-0.84303 10.159-2.8178 14.064-4.7773 15.77-7.914 25.888-22.389 27.497-39.338l0.22023-2.32-1.5614 9.6e-4c-3.0007 2e-3 -8.9535 0.67952-12.921 1.4704-21.182 4.2222-38.536 18.149-41.825 33.563-0.59385 2.784-0.38265 7.5744 0.44465 10.085 0.52615 1.5969 0.6837 1.7805 1.6999 1.9808 1.9116 0.37687 8.9604-2e-3 12.382-0.66594zm-15.262-0.175c0-0.0771-0.23109-1.1211-0.51352-2.32-0.62013-2.6324-0.44443-8.1809 0.35274-11.14 0.78462-2.9123 3.3989-8.0442 5.6347-11.061 3.4187-4.6131 8.5086-9.2177 14.046-12.707l2.08-1.3106 1.1947-3.1407c1.551-4.0772 2.6748-7.8667 3.3449-11.279 0.72504-3.6924 0.72519-10.046 3e-4 -12.821-0.79486-3.0436-2.8944-7.0927-4.6811-9.0282l-1.5619-1.6918-1.1166 0.59322c-2.2606 1.201-7.512 5.406-10.741 8.6011-6.4863 6.4173-11.281 13.117-15.405 21.526-4.9673 10.128-6.9744 18.112-6.6246 26.351 0.28798 6.7824 1.9138 11.003 5.7071 14.816 1.5558 1.5639 2.8271 2.4742 4.8 3.437 2.4561 1.1986 3.4837 1.5453 3.4837 1.1756zm-15.454-21.38c-0.0763-0.396-0.13868-0.072-0.13868 0.72s0.0624 1.116 0.13868 0.72c0.0763-0.396 0.0763-1.044 0-1.44zm42.533-19.879c4.0982-1.8135 7.2726-2.9472 10.841-3.872 2.8722-0.74428 2.881-0.74969 3.2412-1.9939 0.83733-2.892 1.5034-9.0548 1.5148-14.015 0.0138-6.0196-0.60016-11.68-1.2668-11.68-1.6204 0-13.321 2.9759-14.556 3.7022-0.10277 0.06043 0.0976 1.1602 0.44534 2.4438 0.92934 3.431 0.90004 10.419-0.0628 14.974-0.58171 2.7518-2.3883 8.7444-3.4006 11.28-0.12296 0.308-0.15473 0.56-0.0706 0.56 0.0841 0 1.5755-0.62949 3.3142-1.3989zm19.983-5.6081c1.4842-0.17951 3.6504-0.41368 4.8137-0.52038l2.1152-0.19399 0.54242-2.4593c0.80021-3.6281 1.2663-9.2174 0.93989-11.27l-0.27813-1.7491-10.947-0.17474-0.22426 4.0874c-0.19899 3.627-0.69986 7.9907-1.3472 11.737-0.21593 1.2497-0.21578 1.25 0.73546 1.0597 0.5233-0.10466 2.1658-0.33716 3.65-0.51667z" fill="#b12e17"/>
  <path d="m165.6 507.17c-9.4344-1.0247-18.966-4.1257-26.562-8.6413-4.5596-2.7108-7.1815-4.7404-11.198-8.6685l-3.52-3.4421 96.64 6e-3 -3.84 3.7519c-9.0083 8.8016-20.682 14.465-34.086 16.538-4.1033 0.63443-13.527 0.88166-17.434 0.45734zm17.28-1.2289c9.0168-1.3423 17.05-4.2081 24.391-8.7013 4.6359-2.8375 11.289-8.4862 11.289-9.5848 0-0.59936-0.92313-0.61165-45.942-0.61165h-45.942l0.10226 0.70694c0.13869 0.95875 5.3649 5.5204 9.5133 8.3036 7.6527 5.1342 16.131 8.3766 25.789 9.862 5.4884 0.84416 15.219 0.85593 20.8 0.0253zm-73.28-23.827c-8.8361-2.1828-13.52-10.024-10.192-17.063 1.2679-2.6824 3.7247-4.9886 6.9085-6.4852 2.1087-0.9912 2.5125-1.2865 2.0025-1.4648-5.0476-1.7646-8.3612-4.9528-9.609-9.2451-1.5728-5.4104 1.5162-11.067 7.6065-13.93 2.079-0.97725 2.5053-1.2863 2.0025-1.4522-3.9058-1.2881-7.3585-4.1868-8.9253-7.4932-0.85902-1.8128-0.99194-2.4429-0.98224-4.6565 0.0091-2.0837 0.17007-2.9034 0.86497-4.4058 1.0898-2.3562 3.7326-5.0061 6.2702-6.2871 4.1199-2.0797-0.45024-1.9471 67.094-1.9471 67.219 0 62.945-0.11756 66.974 1.8425 2.4296 1.182 5.3048 4.0414 6.3422 6.3073 3.0344 6.6279-0.83107 13.773-8.9952 16.627-0.50994 0.17827-0.1062 0.4736 2.0025 1.4648 3.2066 1.5072 5.7869 3.9342 7.0512 6.6324 0.73345 1.5652 0.86269 2.2594 0.84999 4.5658-0.0127 2.31-0.15107 3.002-0.91786 4.5909-1.5467 3.2049-5.0578 6.0955-8.9859 7.3977-0.50339 0.16688-0.0791 0.47479 2.0025 1.4532 3.2066 1.5072 5.7869 3.9342 7.0512 6.6324 0.73345 1.5652 0.86269 2.2594 0.84999 4.5658-0.0127 2.31-0.15107 3.002-0.91786 4.5909-1.7848 3.6984-6.1697 6.9238-10.683 7.858-2.5782 0.53369-123.49 0.43878-125.66-0.0986zm127.52-1.0952c3.9745-1.4234 6.717-3.7312 8.188-6.8904 0.61751-1.3262 0.76633-2.1713 0.76865-4.3647 3e-3 -2.3326-0.12715-2.9934-0.91007-4.64-1.8754-3.9442-5.5571-6.3561-11.247-7.3678l-2.08-0.36985 1.28-0.21863c4.7434-0.81027 7.0128-1.7622 9.4724-3.9737 0.88493-0.79562 1.9435-2.2023 2.5092-3.3343 0.86347-1.7279 0.97842-2.281 0.97819-4.7069-2.1e-4 -2.3605-0.12922-3.0202-0.91319-4.6689-1.7781-3.7395-5.8423-6.4973-10.683-7.2491-1.3621-0.21152-2.4313-0.42986-2.376-0.48515 0.0553-0.0553 1.2487-0.301 2.6519-0.54596 4.7428-0.828 8.5546-3.4069 10.352-7.0038 0.84064-1.6823 0.96855-2.2831 0.96855-4.5501 0-3.498-0.62635-5.209-2.7443-7.4967-2.0361-2.1992-4.7442-3.7264-7.7293-4.359-3.2081-0.67981-122.68-0.68864-125.89-9e-3 -4.3859 0.9296-8.1255 3.7278-9.7147 7.269-0.79464 1.7707-0.86402 2.2236-0.74617 4.8711 0.11027 2.4774 0.27147 3.1782 1.0656 4.6327 2.055 3.764 5.5793 5.8353 11.837 6.9572 1.2515 0.22435 1.2242 0.23923-1.2264 0.66803-5.0782 0.88864-9.0433 3.5642-10.82 7.3011-0.78397 1.6487-0.91298 2.3084-0.91319 4.6689-2.24e-4 2.4198 0.11572 2.981 0.96829 4.6871 0.5327 1.066 1.622 2.5405 2.4206 3.2766 1.935 1.7836 5.5033 3.4375 8.2449 3.8214 1.2067 0.16902 2.2573 0.37056 2.3346 0.4479 0.0773 0.0773-0.66986 0.24189-1.6604 0.36563-5.3161 0.66423-9.6071 3.5043-11.528 7.6301-1.0957 2.3532-1.1045 6.3923-0.01914 8.7232 1.7993 3.8641 5.7487 6.6614 10.548 7.4713 0.90795 0.15322 29.299 0.25815 63.091 0.23319l61.44-0.0454 2.08-0.7449zm-109.28-15.075c-3.9379-0.96294-7.0142-4.6984-6.4307-7.8088 0.37524-2.0002 2.0623-4.0904 4.168-5.1638l1.8973-0.9672 45.29-0.0833c51.569-0.0949 47.533-0.30182 50.42 2.5858 3.2336 3.2336 2.9076 7.1064-0.826 9.811-2.804 2.0312-0.17514 1.9298-49.056 1.8938-24.476-0.0179-44.934-0.13837-45.462-0.26749zm92.114-1.0058c1.5811-0.43904 3.9059-2.5784 4.3875-4.0376 0.95231-2.8855-0.44924-5.874-3.4447-7.3448l-1.8563-0.91152-44.8-0.0858c-30.994-0.0594-45.31 0.0202-46.457 0.25782-1.9574 0.40598-3.8978 1.7209-4.8766 3.3046-1.3993 2.2641-0.63649 5.9899 1.5442 7.5427 2.3681 1.6862-0.40222 1.5948 48.669 1.6063 31.448 7e-3 45.983-0.0956 46.834-0.33177zm-93.978-26.99c-1.8895-0.51056-3.9601-1.9231-4.9311-3.364-1.9407-2.8798-1.5115-5.6848 1.2497-8.1673 2.8779-2.5874-0.77367-2.4125 50.346-2.4125 51.683 0 47.608-0.21446 50.56 2.6608 2.0822 2.0286 2.6719 3.7068 2.0646 5.8757-0.52972 1.8919-2.4711 4.0076-4.5321 4.9389l-1.692 0.76461-45.76 0.0606c-36.774 0.0487-46.063-0.0214-47.305-0.35686zm94.223-0.99734c1.5148-0.5345 3.2668-2.0324 3.9887-3.4105 0.65571-1.2516 0.56289-3.5854-0.20223-5.0852-0.80159-1.5712-2.9659-3.0136-5.225-3.4821-1.1248-0.23328-15.915-0.31319-47.08-0.2544l-45.44 0.0857-1.8719 0.91914c-3.1998 1.5711-4.5343 4.6921-3.2849 7.6822 0.52305 1.2518 2.5622 3.051 4.0806 3.6005 0.82547 0.29872 11.856 0.39511 47.356 0.41376 40.928 0.0214 46.442-0.0327 47.679-0.46924zm-113.44-33.937c-6.0216-1.094-10.018-3.1581-14.126-7.2961-2.3011-2.318-3.1931-3.5012-4.3668-5.793-2.0641-4.0301-3.1213-7.626-3.4804-11.838-0.16517-1.9372-0.52342-6.1863-0.79611-9.4423-2.3995-28.651-9.2517-54.433-22.07-83.04-2.8265-6.3081-11.407-23.136-15.792-30.971-6.6477-11.878-18.452-31.711-24.229-40.709-11.69-18.207-18.732-39.192-19.981-59.544-0.89444-14.564 0.059117-25.889 3.2525-38.63 6.0694-24.214 18.704-45.539 38.242-64.547 29.466-28.666 69.797-45.902 115.31-49.282 9.7502-0.72409 26.215-0.35437 36.8 0.82635 37.723 4.2079 72.981 19.21 100 42.552 4.6881 4.0499 13.192 12.611 16.831 16.945 19.222 22.889 29.971 49.526 31.303 77.569 0.28324 5.9647-0.26969 17.864-1.0874 23.401-1.9982 13.531-5.952 26.058-12.27 38.876-2.9648 6.0145-5.0948 9.6945-11.502 19.873-21.781 34.6-40.816 73.964-49.361 102.08-4.0215 13.232-6.7134 27.312-6.7134 35.115 0 3.7055-2.1135 20.453-2.9083 23.046-3.1483 10.27-9.8777 17.191-19.717 20.277l-2.8149 0.88291-64 0.054c-54.361 0.0458-64.38-0.015-66.526-0.4049zm132.29-0.98064c3.9567-1.1362 5.9304-1.9837 8.3863-3.601 5.1844-3.414 8.8432-8.2966 11.261-15.027 1.0302-2.8679 2.61-14.424 3.0897-22.6 0.58562-9.9823 1.8716-17.904 4.6492-28.64 1.8521-7.1585 6.3792-20.711 9.7127-29.077 9.8918-24.824 26.015-55.962 42.358-81.803 7.5513-11.94 10.766-17.793 14.235-25.92 5.3003-12.416 8.7364-25.905 9.7287-38.19 0.50579-6.2619 0.5086-19.817 5e-3 -24.21-1.7814-15.544-5.8752-29.567-12.533-42.933-22.912-45.994-73.041-78.836-131.53-86.173-9.8826-1.2398-13.736-1.4518-26.08-1.4349-15.858 0.021705-24.292 0.79374-38.56 3.5297-57.57 11.04-105.17 47.788-123.29 95.171-3.9253 10.268-6.3439 20.298-7.6393 31.68-0.51837 4.5544-0.52562 17.697-0.013266 24.05 1.1692 14.498 5.5415 30.059 12.231 43.529 2.8139 5.666 6.1635 11.46 6.6256 11.46 0.2184 1.8e-4 1.118 1.437 1.9992 3.1928 0.88114 1.7559 2.8736 5.2479 4.4277 7.76 18.199 29.418 31.291 54.163 39.664 74.968 10.245 25.457 15.85 50.536 17.634 78.902 0.25502 4.0554 0.44541 5.117 1.4634 8.16 1.3537 4.0464 2.7882 6.76 4.9402 9.3448 3.7411 4.4935 9.6158 7.4642 16.515 8.3513 1.2714 0.16345 29.499 0.26889 65.28 0.24384l63.04-0.0442zm-128.54-11.769c-3.6071-1.1279-6.1906-3.9821-8.3048-9.1749-0.67777-1.6647-1.0336-3.738-1.9156-11.163-0.59581-5.0154-1.0833-10.272-1.0833-11.682 0-3.2918-0.7344-9.63-1.7982-15.519-4.9214-27.245-19.7-63.312-42.616-104-4.3211-7.6725-10.739-18.48-17.055-28.72-8.513-13.802-13.27-24.589-16.301-36.964-2.2705-9.2699-2.951-15.428-2.9965-27.116-0.03348-8.5994 0.13164-10.689 1.4412-18.24 3.0609-17.649 10.87-35.159 22.58-50.63 8.1553-10.775 20.297-22.275 32.359-30.65 25.681-17.83 58.15-28.294 91.218-29.398 25.437-0.84914 49.615 3.2494 72.369 12.268 10.053 3.9846 23.512 11.159 31.912 17.011 28.008 19.512 46.721 45.589 53.685 74.811 2.7442 11.516 3.4844 20.534 2.7207 33.149-0.90205 14.903-4.6931 28.784-11.842 43.36-2.934 5.9823-4.0375 7.8794-11.261 19.36-20.35 32.341-38.221 68.374-47.711 96.199-6.1321 17.979-9.0267 31.243-9.8281 45.036-0.4952 8.5232-2.1253 21.109-3.0222 23.334-1.7554 4.3542-3.8558 6.8187-7.0779 8.3047l-1.5745 0.72611-57.529 0.1734 0.21276-1.5267c1.7666-12.677 2.203-18.576 2.1957-29.687-0.0102-15.76-1.6372-27.629-5.3736-39.205-2.8258-8.7547-6.3102-15.373-12.096-22.976-13.036-17.129-19.92-32.266-21.966-48.297-0.68153-5.3387 0.0939-15.808 1.6296-22.003 0.76705-3.094 2.224-7.6092 2.3988-7.4343 0.0694 0.0694-0.22881 1.1703-0.6628 2.4463-1.8829 5.536-3.0496 12.874-3.0496 19.182 0 17.997 7.1858 36.22 21.811 55.311 5.3876 7.0328 7.9981 11.568 10.922 18.976 5.2004 13.176 7.5774 29.063 7.1576 47.84-0.21588 9.6561-1.2445 21.265-2.3047 26.012l-0.16341 0.73152 28.249-0.10265c21.587-0.0785 28.53-0.19741 29.441-0.50436 2.9114-0.98105 5.9791-4.5565 7.2381-8.4358 0.75293-2.3201 2.4638-16.211 2.7515-22.34 0.49501-10.546 2.9105-23.061 7.1649-37.12 9.1171-30.129 28.697-70.36 52.625-108.13 8.2291-12.989 12.202-21.11 15.889-32.476 2.9338-9.0459 4.3272-16.625 5.0073-27.236 0.5199-8.1125 0.43747-12.325-0.38515-19.68-3.974-35.532-25.802-68.359-59.962-90.175-27.961-17.857-61.843-27.013-96.96-26.201-26.795 0.61964-50.629 6.2995-73.44 17.502-42.711 20.975-70.952 57.971-75.477 98.874-0.81599 7.3766-0.89574 11.315-0.39207 19.36 0.70017 11.184 2.2386 19.148 5.6058 29.017 3.5965 10.541 6.4226 16.129 15.913 31.463 36.075 58.289 57.549 110.68 59.156 144.32 0.35439 7.4184 2.0169 20.474 2.909 22.844 1.4921 3.9642 3.817 6.7813 6.6849 8.1001l1.6 0.73581 46.909 0.1872 1.2771-2.7643c2.7239-5.8958 5.0545-14.276 6.0918-21.903 0.52601-3.8679 0.53769-14.64 0.02-18.4-1.4249-10.348-4.1258-18.797-9.042-28.286-2.6852-5.1829-7.4447-12.405-10.427-15.821-1.2038-1.379-2.9559-3.395-3.8937-4.48-2.8991-3.3544-6.7338-9.3978-9.3666-14.762-10.171-20.723-11.953-46.597-4.7219-68.591 0.53889-1.6391 1.0314-2.9286 1.0944-2.8656 0.0631 0.0631-0.37098 1.6202-0.96452 3.4602-1.2652 3.9221-2.5311 9.4338-3.2817 14.288-0.62503 4.0419-0.67606 16.04-0.0941 22.138 1.4156 14.835 5.9854 28.598 13.127 39.537 2.6121 4.0006 3.6489 5.3478 7.036 9.1426 8.9515 10.029 16.456 24.218 19.542 36.947 2.0664 8.5252 2.749 18.997 1.7632 27.053-0.9998 8.17-3.2051 16.128-6.2701 22.626l-1.554 3.2945-23.302-0.0214c-18.228-0.0166-23.593-0.11238-24.639-0.43923zm39.256-38.545c-3.6998-1.2001-12.389-6.125-17.666-10.014-6.5422-4.8202-10.73-12.394-12.261-22.178-0.82648-5.2788-0.50745-15.211 0.66026-20.555l0.1555-0.71167 2.316 0.82109c3.3524 1.1885 11.428 5.1486 14.943 7.3276 9.2754 5.7499 15.801 12.406 19.037 19.416 1.8343 3.9745 2.2334 5.9522 2.215 10.978-0.0143 3.9135-0.1256 4.8442-0.8803 7.36-1.2719 4.24-2.8641 7.4543-3.8847 7.8423-1.1964 0.45488-2.6165 0.36672-4.6338-0.28762zm4.311-0.3513c0.96365-0.3664 2.383-3.2447 3.3902-6.8749 3.7555-13.536-1.9812-25.57-17.002-35.663-5.7813-3.8849-15.445-8.731-18.351-9.2025-1.0177-0.16515-1.0627-0.12691-1.2506 1.063-1.3398 8.4858-0.96905 17.998 0.96409 24.737 1.4716 5.1306 4.463 10.131 8.1597 13.641 4.11 3.9022 16.009 10.962 20.418 12.114 2.1603 0.56451 2.6138 0.58743 3.671 0.18547zm16.992-59.842c-2.3831-4.5351-3.4074-8.7218-3.4074-13.927 0-5.2157 1.0604-9.4966 3.5658-14.396 4.4319-8.6662 13.009-16.022 24.07-20.642 6.0105-2.5107 10.079-3.1569 11.561-1.8361 1.715 1.5287 2.3058 11.762 1.0232 17.724-2.7526 12.794-12.233 23.888-26.96 31.549-3.31 1.7218-7.892 3.767-8.4393 3.767-0.12999 0-0.76576-1.0075-1.4128-2.2388zm7.9772-1.269c15.803-7.8205 25.671-19.112 28.185-32.252 0.81937-4.2824 0.3739-15.955-0.64751-16.966-0.12962-0.12839-1.1974-0.2145-2.3728-0.19138-5.3811 0.10588-16.206 5.2481-23.068 10.958-5.8007 4.8269-10.02 11.303-11.908 18.28-0.97989 3.6195-1.052 11.093-0.1404 14.56 0.67107 2.5524 1.8682 5.5796 2.828 7.151 0.57718 0.94498 0.77112 1.0479 1.6489 0.87461 0.54713-0.10799 3.0108-1.194 5.4748-2.4133zm-35.03-71.212c0-0.176 0.13958-0.536 0.31019-0.8 0.17062-0.264 0.3102-0.336 0.3102-0.16s-0.13958 0.536-0.3102 0.8c-0.17061 0.264-0.31019 0.336-0.31019 0.16zm0.64-1.6c0-0.176 0.13958-0.536 0.31019-0.8 0.17062-0.264 0.3102-0.336 0.3102-0.16s-0.13958 0.536-0.3102 0.8c-0.17061 0.264-0.31019 0.336-0.31019 0.16zm1.2702-2.8426c0-0.34343 0.95213-2.1174 1.1364-2.1174 0.088 0-0.078 0.468-0.36892 1.04-0.59399 1.168-0.76752 1.4116-0.76752 1.0774zm-16.63-2.9174c0-0.176 0.13958-0.536 0.31019-0.8s0.3102-0.336 0.3102-0.16-0.13959 0.536-0.3102 0.8-0.31019 0.336-0.31019 0.16zm0.64-1.6c0-0.176 0.13958-0.536 0.31019-0.8s0.3102-0.336 0.3102-0.16-0.13959 0.536-0.3102 0.8-0.31019 0.336-0.31019 0.16zm0.97702-2.24c0-0.176 0.27593-0.824 0.61317-1.44 0.33725-0.616 0.61318-0.976 0.61318-0.8s-0.27593 0.824-0.61318 1.44c-0.33724 0.616-0.61317 0.976-0.61317 0.8zm1.8932-4c0.35916-0.704 0.72501-1.28 0.81301-1.28s-0.13385 0.576-0.49301 1.28c-0.35915 0.704-0.725 1.28-0.813 1.28s0.13385-0.576 0.493-1.28zm20.16-1.0808c0-0.0665 0.252-0.31845 0.56-0.56 0.50754-0.39804 0.51886-0.38672 0.12082 0.12082-0.41803 0.53304-0.68082 0.70256-0.68082 0.43918zm-18.56-1.7992c0.18839-0.352 0.41452-0.64 0.50252-0.64s6e-3 0.288-0.18252 0.64c-0.18838 0.352-0.41451 0.64-0.50251 0.64s-6e-3 -0.288 0.18251-0.64zm19.52 0.51918c0-0.0664 0.252-0.31845 0.56-0.56 0.50754-0.39804 0.51886-0.38672 0.12082 0.12082-0.41803 0.53304-0.68082 0.70256-0.68082 0.43918zm1.76-2.1192c0.31856-0.352 0.6512-0.64 0.7392-0.64s-0.10064 0.288-0.4192 0.64c-0.31855 0.352-0.65119 0.64-0.73919 0.64s0.10064-0.288 0.41919-0.64zm1.12-1.3801c0-0.0551 0.468-0.52307 1.04-1.04l1.04-0.93987-0.93986 1.04c-0.87609 0.96943-1.1401 1.1871-1.1401 0.93987zm-19.2-1.9407c0-0.0665 0.252-0.31845 0.56-0.56 0.50754-0.39804 0.51886-0.38672 0.12082 0.12082-0.41804 0.53304-0.68082 0.70255-0.68082 0.43918zm0.96-1.28c0-0.0665 0.252-0.31845 0.56-0.56 0.50754-0.39804 0.51886-0.38672 0.12082 0.12082-0.41804 0.53304-0.68082 0.70255-0.68082 0.43918zm22.84-1.6912c1.3122-1.3892 1.5378-1.8065 1.4179-2.6231-0.0784-0.53409-0.0246-0.89817 0.11958-0.80908 0.14415 0.0891 0.26209 0.5549 0.26209 1.0351 0 0.63833-0.45178 1.3002-1.68 2.4611l-1.68 1.588zm-21.08-0.42797c0.31856-0.352 0.6512-0.64 0.7392-0.64s-0.10064 0.288-0.4192 0.64c-0.31855 0.352-0.65119 0.64-0.73919 0.64s0.10064-0.288 0.41919-0.64zm2.88-3.2c0.68744-0.704 1.3219-1.28 1.4099-1.28s-0.40245 0.576-1.0899 1.28c-0.68743 0.704-1.3219 1.28-1.4099 1.28s0.40245-0.576 1.0899-1.28zm18.376-1.2-0.77578-0.88 0.88 0.77578c0.8225 0.72508 1.0268 0.98422 0.77578 0.98422-0.0573 0-0.45331-0.396-0.88-0.88zm-1.9366-1.6c-0.39804-0.50754-0.38672-0.51886 0.12081-0.12082 0.308 0.24155 0.56 0.49355 0.56 0.56 0 0.26337-0.26278 0.0939-0.68081-0.43918zm-12.919-0.4c0.31856-0.352 0.6512-0.64 0.7392-0.64s-0.10064 0.288-0.4192 0.64c-0.31855 0.352-0.65119 0.64-0.73919 0.64s0.10064-0.288 0.41919-0.64zm28.563-2.0985c-2.5512-0.61834-4.2323-1.5436-6.2198-3.4232-2.286-2.162-2.1825-2.6364 0.12624-0.57863 2.2147 1.9739 3.7832 2.7673 6.6872 3.3825 8.6204 1.8263 20.089-1.863 30.203-9.7162 8.8433-6.8663 14.366-15.44 14.394-22.347 3e-3 -0.73762 0.14956-1.4301 0.32556-1.5389 0.49579-0.30642 0.38863 3.2746-0.16318 5.4528-0.26575 1.049-1.0653 3.0964-1.7768 4.5498-4.4761 9.1439-16.683 19.195-27.821 22.909-5.3717 1.791-11.625 2.311-15.755 1.31zm-20.262-0.31914c-0.59649-0.47789-0.59257-0.4838 0.0988-0.14874 0.396 0.1919 0.72 0.41584 0.72 0.49765 0 0.24487-0.16595 0.17415-0.81883-0.34891zm-3.1012-1.3143c0.22-0.0888 0.58-0.0888 0.8 0s0.04 0.16141-0.4 0.16141-0.62-0.0726-0.4-0.16141zm14.759-4.8281c-0.39804-0.50754-0.38672-0.51886 0.12081-0.12082 0.308 0.24155 0.56 0.49355 0.56 0.56 0 0.26337-0.26278 0.0939-0.68081-0.43918zm-2.6792-3.0078c-4.4209-3.5551-7.3412-7.1541-9.5811-11.808-3.7687-7.8303-4.244-16.6-1.4475-26.704 2.4506-8.8543 8.507-19.267 14.704-25.28l1.6489-1.6 0.75385 0.96c0.41462 0.528 0.8845 1.1015 1.0442 1.2744 0.17857 0.1934-0.48314 1.9179-1.7191 4.48-7.125 14.771-8.3431 29.462-3.1568 38.074l1.1493 1.9086-1.2778 2.5714c-2.8513 5.7375-3.2516 11.183-1.1596 15.771 0.42131 0.924 0.73798 1.6707 0.70372 1.6594-0.0343-0.0113-0.7823-0.59958-1.6623-1.3072z" fill="#277e32"/>
 </g>
</svg>
