<svg width="1305.9" height="248.52" version="1.1" viewBox="0 0 1305.9 248.52" xmlns="http://www.w3.org/2000/svg">
 <g transform="translate(-18.56 -6.7009)" stroke-width=".32">
  <path d="m236.35 255c-9.5006-1.0522-18.391-4.122-27.004-9.324-2.2306-1.3473-8.3831-6.4781-8.3831-6.9909 0-0.13435-0.18723-0.43456-0.41606-0.66713-2.0478-2.0813-5.2606-7.5059-6.8838-11.623-2.9792-7.5562-4.0612-13.119-4.0458-20.8 0.0147-7.3469 0.89548-12.566 3.2298-19.137 1.0848-3.0538 3.985-9.0347 5.125-10.569 2.2415-3.0166 7.1773-7.467 11.471-10.343 2.6848-1.7982 12.734-6.8314 13.639-6.8314 0.15816 0 0.89799-0.2751 1.6441-0.61133 7.6008-3.4254 24.729-7.8509 47.117-12.174 4.576-0.88362 8.896-1.7474 9.6-1.9196 0.704-0.17217 2.576-0.61807 4.16-0.99087 3.8857-0.91452 6.4668-1.8671 7.5666-2.7925l0.9134-0.76858-5e-3 -5.9716c-4e-3 -4.8552-0.12193-6.4359-0.63087-8.4555-0.71357-2.8317-0.92969-3.2945-2.5902-5.5475-3.9174-5.315-11.742-7.7766-24.787-7.7984-12.198-0.0203-20.535 2.0703-25.056 6.2832-0.40923 0.38133-1.1844 1.1013-1.7226 1.6-1.1018 1.0209-4.2157 5.6155-5.7254 8.4481-1.435 2.6924-4.215 5.6669-5.5263 5.9129-2.7122 0.50881-13.8-2.2261-31.901-7.8689-4.2178-1.3148-5.1813-2.4187-5.7633-6.6028-0.58562-4.2105 0.78331-12.908 3.1267-19.866 1.4946-4.4377 3.2024-6.5577 8.5044-10.557 3.7479-2.8272 8.3684-5.0082 16.077-7.5889 4.5747-1.5314 12.442-2.974 22.72-4.166 11.96-1.387 33.463-1.5593 43.68-0.34989 20.018 2.3694 34.42 8.1907 43.625 17.632 5.8409 5.9915 9.5775 13.013 11.236 21.113 1.1986 5.8546 1.3193 9.9691 0.55514 18.921-0.3887 4.5534-0.7776 9.1429-0.86422 10.199-1.0276 12.527-1.4689 41.857-0.80157 53.28 1.0863 18.596 3.2126 32.358 6.6496 43.04 0.99597 3.0954 3.0859 7.9476 3.9394 9.1463 0.3417 0.47988 0.62128 1.0303 0.62128 1.2231 0 0.51443-40.257 0.49098-41.978-0.0244-0.6885-0.20628-1.8685-0.96228-2.6223-1.68-1.4247-1.3566-2.0815-2.9627-4.8519-11.865-1.1582-3.7217-1.4338-4.32-1.99-4.32-0.2525 0-1.7054 0.96226-3.2286 2.1383-12.307 9.5023-27.219 16.209-41.478 18.654-4.5148 0.7744-12.783 1.0731-16.945 0.61223zm30.533-33.113c12.187-1.8965 16.861-4.5434 22.269-12.612 1.2386-1.848 2.491-3.8777 2.7831-4.5104 1.2851-2.7839 2.1481-13.268 2.1481-26.095 0-6.1592-0.0805-7.5254-0.45186-7.6679-0.46613-0.17888-10.307 1.8008-18.588 3.7394-1.584 0.3708-3.456 0.79717-4.16 0.94748-1.6939 0.36167-11.683 2.9158-15.52 3.9683-1.672 0.45865-5.0166 1.4892-7.4324 2.2901-3.5946 1.1917-4.7057 1.7141-6.1175 2.8764-1.4614 1.2031-4.0501 4.4748-4.0501 5.1185 0 0.10811-0.20218 0.65032-0.44928 1.2049-1.2036 2.7013-1.533 4.3598-1.6941 8.5284-0.14268 3.6917-0.0685 4.723 0.50991 7.0907 2.6114 10.69 11.518 16.371 24.674 15.74 1.672-0.0802 4.408-0.35873 6.08-0.61892zm183.52 30.7c-15.284-1.2086-30.253-7.0338-38.316-14.911-0.67558-0.66-1.338-1.2-1.4721-1.2-0.80592 0-5.6554-6.9082-7.0284-10.012-0.38285-0.86551-0.87917-1.5079-1.165-1.5079-0.44192 0-0.49798 1.3702-0.49798 12.17v12.17l-35.443-0.1807-1.8013-1.2408c-2.0903-1.4399-3.419-2.8688-4.434-4.7681l-0.72195-1.3511v-228.06l0.96-0.78722c3.488-2.8602 10.84-4.2729 22.23-4.2712 6.3582 9.28e-4 10.14 0.30335 14.368 1.1489 4.5868 0.91736 8.0183 2.5541 8.5365 4.0718 0.13116 0.38414 0.30022 19.13 0.37571 41.658 0.0754 22.528 0.2463 41.073 0.37968 41.21 0.29373 0.30347 1.3095-0.04352 1.3095-0.44734 0-0.42212 3.6802-4.7353 4.8621-5.6983 0.55671-0.45365 1.6019-1.3288 2.3226-1.9448 6.4671-5.5276 16.661-10.189 26.895-12.3 5.3715-1.1078 7.531-1.2937 14.88-1.2816 7.6129 0.01261 10.6 0.31584 16 1.6245 6.6885 1.6208 15.151 5.4683 20.957 9.5279 2.0041 1.4013 6.4918 5.3277 8.6427 7.5617 1.232 1.2796 2.6067 2.7003 3.0548 3.1571s1.4558 1.6946 2.2392 2.7506c0.78339 1.056 1.4979 1.992 1.5877 2.08 0.40841 0.40002 3.1588 4.8156 3.9865 6.4 0.50567 0.968 1.2552 2.2614 1.6656 2.8743 0.4104 0.61285 0.74621 1.2226 0.74621 1.3549s0.44282 1.1429 0.98406 2.2457c0.54122 1.1028 1.3484 3.0131 1.7938 4.2451 0.44535 1.232 0.99335 2.672 1.2178 3.2 0.67782 1.5946 1.8329 5.0206 2.2657 6.72 2.5412 9.9791 2.8593 11.487 3.8145 18.08 1.4044 9.6938 1.606 12.787 1.5644 24-0.0362 9.7786-0.1129 11.212-0.8729 16.32-2.3642 15.89-6.4602 26.844-14.234 38.066-2.4443 3.5283-9.9019 11.173-13.493 13.832-8.3435 6.177-17.612 10.219-28.16 12.279-5.9812 1.1686-14.237 1.6697-20 1.2141zm3.5412-39.173c2.9335-0.52792 5.8832-1.5084 7.8112-2.5965 2.7386-1.5455 5.0625-3.3779 5.9295-4.6752 0.43619-0.65266 1.3042-1.9066 1.9288-2.7866 0.62464-0.88 1.9804-3.328 3.0129-5.44 8.1149-16.599 9.9089-38.23 4.6314-55.84-1.8151-6.0566-3.5095-10.172-5.5336-13.44-1.308-2.1119-5.1088-5.8781-7.6025-7.5333-5.1732-3.4338-13.145-5.163-19.959-4.3294-6.5427 0.80042-13.043 3.1885-17.642 6.4817-3.1814 2.2779-5.2721 3.9115-6.0381 4.7182-2.8388 2.9894-5.0694 5.463-5.76 6.3873-0.44 0.58897-1.3946 1.8638-2.1212 2.8329-0.72665 0.96912-1.4882 2.3192-1.6922 3.0002-0.25146 0.83923-0.43347 7.0901-0.56493 19.4-0.29933 28.027 0.0847 30.513 5.908 38.242 1.1603 1.54 2.1908 2.8002 2.29 2.8004 0.0992 2e-4 1.0444 0.80094 2.1004 1.7794 2.9996 2.7794 8.1454 6.0588 12.057 7.684 4.188 1.7399 7.8932 2.7686 12.423 3.4489 1.7754 0.26664 7.0383 0.18646 8.8212-0.13439zm537.74 38.238c-0.44-0.0761-1.88-0.29148-3.2-0.4787-4.6351-0.6574-8.1909-1.9229-9.8753-3.5145-1.504-1.4212-1.5622-1.9936-1.2507-12.303 0.16848-5.5753 0.19933-51.725 0.0736-110.08-0.11907-55.264-0.19776-101.6-0.17485-102.96 0.0536-3.1995 0.77107-5.144 2.3769-6.4419l1.2297-0.9939 73.17-0.0903c56.482-0.06971 73.499-2e-3 74.61 0.29694 1.1021 0.29636 1.9699 0.91832 3.6981 2.6503 2.3613 2.3664 3.0607 3.5686 4.3889 7.5431 2.6673 7.9822 2.2383 16.998-1.1108 23.348-1.6199 3.0713-2.7853 4.2354-5.4866 5.4805-3.4942 1.6106-5.699 1.6736-48.21 1.3781-20.856-0.14498-42.024-0.2688-47.04-0.27516l-9.12-0.01155-0.1945 14.56c-0.107 8.008-0.2454 20.248-0.3076 27.2l-0.1131 12.64 2.8676 0.20916c1.5772 0.11503 20.364 0.37748 41.748 0.58322s39.888 0.51205 41.12 0.68068c2.7285 0.37348 4.3179 1.1535 6.3438 3.1134 3.8735 3.7472 5.9667 9.7721 5.9667 17.174 0 9.2278-2.8449 15.165-8.5595 17.864l-2.151 1.0158h-18.08c-9.944 0-29.456-0.0589-43.36-0.13085l-25.28-0.13085-0.2455 47.171c-0.135 25.944-0.3193 47.627-0.4096 48.185-0.3634 2.2445-6.0446 4.4848-14.545 5.7355-3.1827 0.46831-17.069 0.89982-18.88 0.5867zm-355.54-0.52668c-2.5418-0.43541-4.1048-2.1128-4.922-5.2822-0.44614-1.7305-0.51097-4.6293-0.49283-22.039 0.0115-11.026-0.0695-20.137-0.17994-20.247-0.11046-0.1104-20.241-0.20073-44.734-0.20073-40.424 0-44.639-0.048-45.676-0.51997-1.6848-0.76624-3.3641-2.364-4.115-3.9151-0.64423-1.3308-0.66173-1.8295-0.66173-18.857v-17.49l7.561-13.049c39.424-68.036 69.469-117.5 79.693-131.19 3.8737-5.1888 6.112-7.0391 10.702-8.8471 5.0351-1.9832 10.965-2.8163 19.835-2.7865 10.797 0.036306 17.638 1.8026 21.568 5.5689l1.44 1.3797 0.0413 6.8549c0.0227 3.7702 0.17542 26.439 0.33936 50.375 0.16397 23.936 0.36323 54.066 0.44282 66.955l0.1447 23.435 0.71594 0.14539c0.74048 0.15037 8.392 0.43207 21.256 0.78258l7.42 0.20217 0.98928 0.94878c1.3848 1.3282 2.5329 3.931 3.3131 7.5114 0.92867 4.2617 0.98938 16.973 0.10096 21.14-1.0852 5.0892-3.0762 9.7334-4.7785 11.146-0.23772 0.19729-4.4906 0.3985-10.789 0.51043-11.922 0.21188-17.011 0.44193-17.361 0.78472-0.13459 0.13201-0.25261 9.3747-0.26231 20.539-0.0198 22.917-5e-3 22.746-2.1914 24.722-0.69491 0.62781-1.7401 1.221-2.3226 1.3182-1.6242 0.27103-35.549 0.37079-37.077 0.10903zm-27.182-89.817c3.256-0.0202 6.7804-0.17766 7.8319-0.34985 1.2283-0.20113 3.4596-0.20546 6.24-0.0121 7.3534 0.51135 11.861 0.50483 12.19-0.0176 0.31513-0.50039 0.40867-84.157 0.0954-85.333-0.10547-0.396-0.3096-0.72-0.45363-0.72-0.39872 0-10.001 15.216-18.477 29.28-14.166 23.504-24.605 43.761-26.622 51.662-0.7654 2.9978-0.84268 5.3154-0.1895 5.6826 0.25037 0.14075 3.3824 0.16362 6.96 0.0508 3.5776-0.11279 9.1688-0.22162 12.425-0.24185zm304.16 89.858c-5.833-0.69428-10.823-2.6277-12.235-4.7408l-0.7279-1.0892 0.0813-116.09 0.0813-116.09 1.0821-1.1165c0.5952-0.61407 1.8192-1.419 2.72-1.7887 0.90084-0.36972 1.886-0.81009 2.1892-0.97859 0.30326-0.16851 1.8873-0.60703 3.52-0.9745 8.8682-1.9959 22.275-2.1175 29.291-0.26571 5.3102 1.4015 7.8117 2.8151 8.7164 4.9259 0.57693 1.3459 0.61754 3.5468 0.94 50.945 0.18534 27.246 0.49299 79.112 0.68365 115.26l0.34669 65.719-1.0646 1.1121c-2.0012 2.0905-6.4999 3.6414-13.779 4.7506-3.945 0.60106-18.072 0.8792-21.845 0.4301zm256.71-6.4e-4c-4.0254-0.58888-7.4989-3.0815-9.2513-6.6388l-0.735-1.4921v-109.76c0-108.87 0.01-109.78 0.64-111.8 0.5239-1.6698 0.9449-2.3186 2.3214-3.5777 1.8191-1.6641 3.6373-2.3732 7.4386-2.9013 1.2024-0.16705 32.673-0.25361 74.589-0.20517l72.509 0.0838 1.4106 1.1576c3.3969 2.7877 5.4181 9.9929 5.4044 19.266-0.015 9.9178-2.6235 18.133-6.3643 20.042-1.2665 0.64613-2.0109 0.66177-55.137 1.1581-29.619 0.27673-54.034 0.56057-54.255 0.63076-0.319 0.10127-0.385 5.2321-0.32 24.857l0.082 24.729h89.6l1.4703 0.68001c1.8684 0.86417 2.6653 1.727 3.805 4.12 1.7226 3.617 2.2737 6.4831 2.4694 12.842 0.1429 4.6466 0.068 6.4634-0.375 9.12-0.7096 4.2535-1.8016 7.6986-3.0782 9.7113-1.1659 1.838-1.5764 2.2142-3.3315 3.0532-1.2408 0.5931-2.6353 0.61224-45.587 0.6257-24.369 8e-3 -44.405 0.12043-44.525 0.25063-0.12 0.1302-0.1257 14.205-0.013 31.277l0.2053 31.04 54.56 0.16c51.169 0.15006 54.624 0.19478 55.584 0.71967 3.1269 1.7099 5.0916 7.4018 5.4402 15.76 0.4362 10.463-1.8845 20.837-5.3647 23.981l-1.1447 1.0342-5.0971 0.21139c-7.4729 0.30992-140.77 0.18338-142.95-0.13571zm-1151.3-118.53v-116.64l1.52-0.95009c1.6957-1.0599 4.2931-1.7366 9.52-2.4802 4.9987-0.71111 19.619-0.6894 25.28 0.03753 5.3738 0.69009 9.4652 1.6566 10.788 2.5484l1.0519 0.70916v7.027c0 3.8648-0.20539 21.499-0.45642 39.187-0.86941 61.26-0.55911 137.08 0.58611 143.21 0.36183 1.9368 1.2734 2.8423 3.8363 3.8111 2.7419 1.0364 4.0347 1.3049 9.634 2.0008 3.9097 0.48588 7.1332 0.57602 20.48 0.57271 18.292-5e-3 25.446-0.33891 61.28-2.8639 8.624-0.6077 16.925-1.1917 18.447-1.2979l2.7673-0.19297 0.79251 1.0615c1.0975 1.47 1.4904 2.29 2.0152 4.2062 1.9425 7.0924 2.6634 11.856 2.9222 19.312 0.3387 9.7568-1.2851 15.824-4.5692 17.073-0.52048 0.19789-30.769 0.3106-83.356 0.3106h-82.539zm702.61 116.43c-0.11734-0.11733-0.21334-52.506-0.21334-116.42 0-92.493 0.0816-116.3 0.4-116.69 1.7661-2.135 8.3459-3.5108 18.96-3.9644 12.099-0.51712 27.287 1.4917 28.806 3.8098 0.42339 0.64618 0.44237 2.5867 0.15719 16.065-1.2604 59.57-1.2754 160.87-0.0256 172.09 0.34793 3.1253 0.91251 3.9412 3.4108 4.9292 4.8234 1.9076 10.968 2.6035 25.092 2.8417 15.982 0.26949 31.627-0.40416 64.758-2.7884 20.917-1.5053 22.915-1.6113 23.587-1.2515 1.198 0.64116 3.0814 5.7812 4.0988 11.186 1.4367 7.6329 1.8626 16.943 1.0173 22.24-0.52384 3.2828-1.8385 6.2049-3.2895 7.3117l-1.1122 0.84829h-82.716c-45.494 0-82.812-0.096-82.93-0.21333z" fill="#1ec4aa"/>
  <path d="m636.14 251.13c-2.5418-0.43541-4.1048-2.1128-4.922-5.2822-0.44614-1.7305-0.51097-4.6293-0.49283-22.039 0.0115-11.026-0.0695-20.137-0.17994-20.247-0.11046-0.1104-20.241-0.20073-44.734-0.20073-40.424 0-44.639-0.048-45.676-0.51997-1.6848-0.76624-3.3641-2.364-4.115-3.9151-0.64423-1.3308-0.66173-1.8295-0.66173-18.857v-17.49l7.561-13.049c39.424-68.036 69.469-117.5 79.693-131.19 3.8737-5.1888 6.112-7.0391 10.702-8.8471 5.0351-1.9832 10.965-2.8163 19.835-2.7865 10.797 0.036306 17.638 1.8026 21.568 5.5689l1.44 1.3797 0.0413 6.8549c0.0227 3.7702 0.17542 26.439 0.33936 50.375 0.16397 23.936 0.36323 54.066 0.44282 66.955l0.1447 23.435 0.71594 0.14539c0.74048 0.15037 8.392 0.43207 21.256 0.78258l7.42 0.20217 0.98928 0.94878c1.3848 1.3282 2.5329 3.931 3.3131 7.5114 0.92867 4.2617 0.98938 16.973 0.10096 21.14-1.0852 5.0892-3.0762 9.7334-4.7785 11.146-0.23772 0.19729-4.4906 0.3985-10.789 0.51043-11.922 0.21188-17.011 0.44193-17.361 0.78472-0.13459 0.13201-0.25261 9.3747-0.26231 20.539-0.0198 22.917-5e-3 22.746-2.1914 24.722-0.69491 0.62781-1.7401 1.221-2.3226 1.3182-1.6242 0.27103-35.549 0.37079-37.077 0.10903zm-27.182-89.817c3.256-0.0202 6.7804-0.17766 7.8319-0.34985 1.2283-0.20113 3.4596-0.20546 6.24-0.0121 7.3534 0.51135 11.861 0.50483 12.19-0.0176 0.31513-0.50039 0.40867-84.157 0.0954-85.333-0.10547-0.396-0.3096-0.72-0.45363-0.72-0.39872 0-10.001 15.216-18.477 29.28-14.166 23.504-24.605 43.761-26.622 51.662-0.7654 2.9978-0.84268 5.3154-0.1895 5.6826 0.25037 0.14075 3.3824 0.16362 6.96 0.0508 3.5776-0.11279 9.1688-0.22162 12.425-0.24185z" fill="#db0a1d"/>
 </g>
</svg>
